G04 ================== begin FILE IDENTIFICATION RECORD ==================*
G04 Layout Name:  alimentation.brd*
G04 Film Name:    TOP*
G04 File Format:  Gerber RS274X*
G04 File Origin:  Cadence Allegro 16.5-S022*
G04 Origin Date:  Tue Apr 30 12:43:16 2013*
G04 *
G04 Layer:  ETCH/TOP*
G04 Layer:  PIN/TOP*
G04 Layer:  VIA CLASS/TOP*
G04 *
G04 Offset:    (0.0 0.0)*
G04 Mirror:    No*
G04 Mode:      Positive*
G04 Rotation:  0*
G04 FullContactRelief:  No*
G04 UndefLineWidth:     10.0*
G04 ================== end FILE IDENTIFICATION RECORD ====================*
%FSLAX35Y35*MOIN*%
%IR0*IPPOS*OFA0.00000B0.00000*MIA0B0*SFA1.00000B1.00000*%
%ADD10C,.145*%
%ADD20R,.06X.02*%
%ADD21R,.017X.02*%
%ADD16R,.06X.04*%
%ADD19R,.025X.05*%
%ADD17R,.05X.025*%
%ADD11C,.06*%
%ADD14C,.07*%
%ADD13C,.034*%
%ADD12R,.07X.063*%
%ADD18R,.063X.07*%
%ADD15R,.07X.07*%
%ADD22C,.03*%
%ADD23C,.04*%
%ADD24C,.025*%
G75*
%LPD*%
G75*
G54D10*
X14000Y18500D03*
X12500Y181500D03*
X226000Y17500D03*
X226500Y181500D03*
G54D11*
X12500Y90000D03*
Y120000D03*
G54D20*
X116550Y75000D03*
Y102500D03*
X143450Y75000D03*
Y102500D03*
G54D12*
X27500Y74000D03*
Y85000D03*
Y96500D03*
Y107500D03*
X130000Y125000D03*
Y136000D03*
X185000Y131000D03*
Y120000D03*
G54D21*
X188800Y146500D03*
X181300D03*
X185000Y153500D03*
G54D22*
G01X12500Y90000D02*
X22500D01*
X23290Y89210D01*
Y88860D01*
X27150Y85000D01*
X27500D01*
G01X35000D02*
X27500D01*
G01X44200Y77800D02*
X43200D01*
X40420Y80580D01*
Y81580D01*
X40000Y82000D01*
Y88600D01*
X32100Y96500D01*
X27500D01*
G01X52750Y115000D02*
X42500D01*
G01X52750Y120000D02*
X47500D01*
G01X52750Y145000D02*
Y151250D01*
X54000Y152500D01*
G01X85000Y121200D02*
X83800Y120000D01*
X78700D01*
X77500Y121200D01*
Y151300D01*
X76300Y152500D01*
X54000D01*
G01D02*
Y160000D01*
G01X57500Y95000D02*
X61510Y90990D01*
Y76610D01*
X58800Y73900D01*
X57800D01*
G01X93500Y107500D02*
Y107150D01*
X89570Y103220D01*
X88470D01*
X81530Y96280D01*
Y95280D01*
X78750Y92500D01*
X77750D01*
G01X85000Y121200D02*
Y114260D01*
X82500Y111760D01*
Y107500D01*
G01X90000Y125250D02*
Y115260D01*
X93500Y111760D01*
Y107500D01*
G01X85000Y125250D02*
Y121200D01*
G01X95000Y125250D02*
Y120000D01*
X100000Y115000D01*
G01X143450Y75000D02*
X135500D01*
X135000Y75500D01*
Y102500D01*
G01X140000Y122500D02*
Y115000D01*
X135000Y110000D01*
Y102500D01*
G01D02*
X143450D01*
G01X130000Y136000D02*
X135500D01*
X136500Y135000D01*
X150250D01*
G01Y140000D02*
X140000D01*
G01X170000Y100000D02*
Y107400D01*
X169750Y107650D01*
Y110000D01*
G01X185000Y120000D02*
X169750D01*
G01X181300Y146500D02*
Y138610D01*
X185000Y134910D01*
Y131000D01*
G01Y153500D02*
X196500D01*
G01X199500Y110100D02*
X216500D01*
X217500Y109100D01*
Y87500D01*
X227500Y77500D01*
Y62100D01*
X220000Y54600D01*
Y50000D01*
G01X226500Y153500D02*
Y169000D01*
X225500Y170000D01*
X211000D01*
G01X226500Y153500D02*
X230000Y150000D01*
Y143250D01*
X226750Y140000D01*
X225500D01*
G54D13*
X35000Y85000D03*
X42500Y115000D03*
X47500Y120000D03*
X57500Y95000D03*
X100000Y115000D03*
X140000Y122500D03*
Y140000D03*
X170000Y100000D03*
X196500Y153500D03*
X226500D03*
G54D23*
G01X27500Y107500D02*
X15000D01*
X12500Y110000D01*
Y120000D01*
G01D02*
Y150000D01*
X20000Y157500D01*
G01X40360Y62500D02*
X33000D01*
X32500Y63000D01*
Y69350D01*
X27850Y74000D01*
X27500D01*
G01X20000Y137500D02*
X37500Y120000D01*
Y105000D01*
X40000Y102500D01*
X57500D01*
X62500Y97500D01*
G01X37830Y169670D02*
X32170D01*
X20000Y157500D01*
G01X87500Y44000D02*
X86500Y45000D01*
X41360D01*
X40360Y46000D01*
Y62500D01*
G01X44200Y70100D02*
Y66340D01*
X40360Y62500D01*
G01X52750Y135000D02*
X48490D01*
X42500Y140990D01*
Y165000D01*
X37830Y169670D01*
G01D02*
X62830D01*
X65330Y167170D01*
Y160330D01*
X65000Y160000D01*
G01X62500Y97500D02*
X67500Y92500D01*
Y82500D01*
X80000Y70000D01*
X87500D01*
G01X72250Y135000D02*
X67990D01*
X62500Y129510D01*
Y97500D01*
G01X85000Y159000D02*
Y159500D01*
X84500Y160000D01*
X65000D01*
G01X87500Y44000D02*
X88000Y44500D01*
X158000D01*
X160000Y46500D01*
Y92500D01*
G01X87500Y70000D02*
Y44000D01*
G01Y70000D02*
Y72500D01*
X105000Y90000D01*
Y92500D01*
G01X85000Y144750D02*
Y159000D01*
G01D02*
X86000Y160000D01*
X157500D01*
G01X105000Y92500D02*
X107000Y94500D01*
Y112250D01*
X115000Y120250D01*
Y125250D01*
G01X105000Y92500D02*
X97250D01*
G01X150250Y115000D02*
Y110000D01*
G01D02*
Y102250D01*
X160000Y92500D01*
G01X150250Y120000D02*
Y115000D01*
G01Y125000D02*
X156500D01*
X157500Y126000D01*
Y160000D01*
G01X160000Y92500D02*
X181500D01*
X182500Y93500D01*
G01X169750Y115000D02*
X163500D01*
X162500Y116000D01*
Y129000D01*
X163500Y130000D01*
X169750D01*
G01X182500Y107500D02*
X175000Y115000D01*
X169750D01*
G01Y140000D02*
Y159000D01*
X168750Y160000D01*
G01X157500D02*
X168750D01*
G01X200000D02*
X168750D01*
G01X182500Y93500D02*
X183500Y92500D01*
Y71000D01*
X184500Y70000D01*
X220000D01*
G01X188800Y146500D02*
Y141200D01*
X192500Y137500D01*
Y110000D01*
X190000Y107500D01*
X182500D01*
G01Y93500D02*
Y107500D01*
G01X207500Y140100D02*
Y119800D01*
X206500Y118800D01*
X199500D01*
G01Y140100D02*
X207500D01*
G01D02*
Y159000D01*
X206500Y160000D01*
X200000D01*
G01Y170000D02*
Y160000D01*
G54D14*
X20000Y137500D03*
X220000Y70000D03*
G54D24*
G01X116550Y75000D02*
X122500D01*
X125000Y77500D01*
Y102500D01*
G01D02*
Y110000D01*
X130000Y115000D01*
Y125000D01*
G01X116550Y102500D02*
X125000D01*
G01X150250Y130000D02*
X135350D01*
X130350Y125000D01*
X130000D01*
G54D15*
X20000Y157500D03*
X220000Y50000D03*
G54D16*
X57800Y73900D03*
X44200Y70100D03*
Y77800D03*
X77750Y92500D03*
X97250D03*
G54D17*
X52750Y130000D03*
Y125000D03*
Y120000D03*
Y115000D03*
Y145000D03*
Y140000D03*
Y135000D03*
X72250Y125000D03*
Y130000D03*
Y120000D03*
Y115000D03*
Y140000D03*
Y145000D03*
Y135000D03*
X150250Y110000D03*
Y130000D03*
Y125000D03*
Y120000D03*
Y115000D03*
Y140000D03*
Y135000D03*
X169750Y110000D03*
Y130000D03*
Y120000D03*
Y125000D03*
Y115000D03*
Y135000D03*
Y140000D03*
X199500Y110100D03*
Y118800D03*
Y127500D03*
Y140100D03*
X225500Y110000D03*
Y127400D03*
Y118700D03*
Y140000D03*
G54D18*
X54000Y160000D03*
X65000D03*
X93500Y107500D03*
X82500D03*
X211000Y170000D03*
X200000D03*
G54D19*
X85000Y125250D03*
X90000D03*
X95000D03*
X90000Y144750D03*
X85000D03*
X95000D03*
X100000Y125250D03*
X105000D03*
X110000D03*
X115000D03*
X105000Y144750D03*
X100000D03*
X110000D03*
X115000D03*
M02*
