G04 ================== begin FILE IDENTIFICATION RECORD ==================*
G04 Layout Name:  E:/cegep/cours/1Hiver_2014/Projet/pcb/board6DFfils7Fini.brd*
G04 Film Name:    BOTTOM*
G04 File Format:  Gerber RS274X*
G04 File Origin:  Cadence Allegro 16.6-S021*
G04 Origin Date:  Wed Apr 02 17:29:18 2014*
G04 *
G04 Layer:  ETCH/BOTTOM*
G04 Layer:  PIN/BOTTOM*
G04 Layer:  VIA CLASS/BOTTOM*
G04 *
G04 Offset:    (0.00 0.00)*
G04 Mirror:    No*
G04 Mode:      Positive*
G04 Rotation:  0*
G04 FullContactRelief:  No*
G04 UndefLineWidth:     10.00*
G04 ================== end FILE IDENTIFICATION RECORD ====================*
%FSLAX25Y25*MOIN*%
%IR0*IPPOS*OFA0.00000B0.00000*MIA0B0*SFA1.00000B1.00000*%
%ADD15R,.023X.11*%
%ADD13C,.024*%
%ADD11C,.06*%
%ADD21C,.07*%
%ADD10C,.09*%
%ADD16C,.055*%
%ADD17R,.06X.06*%
%ADD22R,.07X.07*%
%ADD19R,.063X.05*%
%ADD23R,.019X.05*%
%ADD12R,.05X.063*%
%ADD20R,.05X.019*%
%ADD14C,.135*%
%ADD18R,.02756X.05512*%
%ADD24C,.02*%
%ADD25C,.025*%
%ADD29C,.08004*%
%ADD28R,.08004X.08004*%
%ADD27R,.07304X.06004*%
%ADD26R,.06004X.07304*%
G75*
%LPD*%
G75*
G36*
G01X18100Y48902D02*
Y52748D01*
X19498D01*
Y51348D01*
X25502D01*
Y58652D01*
X19498D01*
Y57252D01*
X18100D01*
Y91700D01*
X18598D01*
Y86548D01*
X24602D01*
Y91700D01*
X26098D01*
Y86548D01*
X32102D01*
Y88198D01*
X44948D01*
Y84198D01*
X48252D01*
Y88198D01*
X49679D01*
X51779Y90298D01*
X56302D01*
G02X56585Y89616I0J-400D01*
G01X44598Y77629D01*
Y65348D01*
G02X43916Y65065I-400J0D01*
G01X39479Y69502D01*
X33002D01*
Y71152D01*
X26998D01*
Y63848D01*
X33002D01*
Y65498D01*
X37821D01*
X44598Y58721D01*
Y55200D01*
G03X44948Y54069I2002J0D01*
G01Y48902D01*
X18100D01*
G37*
G36*
G01X57916Y37057D02*
X53525Y41448D01*
X48603D01*
G03X48241Y41217I0J-400D01*
G02X47748Y41009I-362J170D01*
G03X45452I-1148J-3309D01*
G02X44959Y41217I-131J378D01*
G03X44597Y41448I-362J-169D01*
G01X38603D01*
G03X38241Y41217I0J-400D01*
G02X37748Y41009I-362J170D01*
G03X35452I-1148J-3309D01*
G02X34959Y41217I-131J378D01*
G03X34597Y41448I-362J-169D01*
G01X30102D01*
Y41202D01*
X23098D01*
Y41448D01*
X18100D01*
Y44898D01*
X55028D01*
X60393Y39534D01*
G02X60110Y38852I-283J-282D01*
G01X58598D01*
Y37340D01*
G02X57916Y37057I-400J0D01*
G37*
G36*
G01X74629Y41302D02*
X73665Y42266D01*
G02X73948Y42948I283J282D01*
G01X74720D01*
Y41942D01*
X78480D01*
Y43960D01*
G03Y46440I-1880J1240D01*
G01Y48458D01*
X74720D01*
Y47452D01*
X74405D01*
X73802Y48055D01*
Y50250D01*
G03X69298I-2252J0D01*
G01Y47598D01*
G02X68616Y47315I-400J0D01*
G01X67029Y48902D01*
X48252D01*
Y54069D01*
G03X48602Y55200I-1652J1131D01*
G01Y75971D01*
X59729Y87098D01*
X73998D01*
Y84702D01*
X72171D01*
X70415Y82945D01*
X70371Y82930D01*
G03X68848Y80800I728J-2130D01*
G01Y78233D01*
X68067Y77452D01*
X67752D01*
Y78202D01*
X60448D01*
Y77452D01*
X54400D01*
G03Y72948I0J-2252D01*
G01X60448D01*
Y72198D01*
X67752D01*
Y72948D01*
X69252D01*
G02X69535Y72266I0J-400D01*
G01X69285Y72015D01*
G03X69850Y68788I1415J-1415D01*
G02X69963Y68143I-170J-362D01*
G01X68334Y66515D01*
G02X67652Y66798I-282J283D01*
G01Y67002D01*
X60348D01*
Y60998D01*
X67652D01*
Y61998D01*
X69479D01*
X72179Y64698D01*
X77000D01*
G03X78378Y65248I0J2001D01*
G01X79698D01*
Y64834D01*
X74598Y59734D01*
Y54649D01*
G03X74709Y53992I2002J0D01*
G01X74720Y53960D01*
Y51392D01*
X78480D01*
Y53960D01*
X78491Y53992D01*
G03X78602Y54649I-1891J657D01*
G01Y58076D01*
X82916Y62390D01*
G02X83598Y62107I282J-283D01*
G01Y51500D01*
G03X87602I2002J0D01*
G01Y55098D01*
X96398D01*
Y46629D01*
X91071Y41302D01*
X74629D01*
G37*
G36*
G01X111072Y3041D02*
X111102Y3071D01*
Y9234D01*
G03X107098I-2002J3466D01*
G01Y4729D01*
X107071Y4702D01*
X72829D01*
X72802Y4729D01*
Y34329D01*
X72102Y35029D01*
Y37202D01*
G02X72784Y37485I400J0D01*
G01X72971Y37298D01*
X92729D01*
X100402Y44971D01*
Y55098D01*
X119052D01*
Y61102D01*
X113202D01*
Y87500D01*
G03X109866Y88993I-2002J0D01*
G02X109334I-266J298D01*
G03X107334Y89388I-1334J-1493D01*
G02X106801Y89765I-133J377D01*
G01Y91700D01*
X123198D01*
Y65248D01*
X129202D01*
Y73502D01*
G02X129884Y73785I400J0D01*
G01X136635Y67034D01*
G02X136352Y66352I-283J-282D01*
G01X136098D01*
Y59048D01*
X142102D01*
Y66352D01*
X141102D01*
Y68229D01*
X137015Y72316D01*
G02X137298Y72998I283J282D01*
G01X140900D01*
G03Y77002I0J2002D01*
G01X133601D01*
G02X133381Y77735I1J400D01*
G03X133732Y78022I-1243J1878D01*
G01X135159Y79448D01*
X136998D01*
Y78048D01*
X143002D01*
Y85352D01*
X136998D01*
Y83952D01*
X135548D01*
G02X135265Y84634I0J400D01*
G01X142331Y91700D01*
X161848D01*
Y88852D01*
X161098D01*
Y82283D01*
X158658Y79842D01*
G03X161842Y76658I1592J-1592D01*
G01X166352Y81167D01*
Y81548D01*
X167102D01*
Y88852D01*
X166352D01*
Y91700D01*
X168748D01*
Y76283D01*
X165467Y73002D01*
X161348D01*
Y66998D01*
X168900D01*
Y65502D01*
X161348D01*
Y59498D01*
X168900D01*
Y41308D01*
G02X168139Y41135I-400J0D01*
G03Y34865I-6539J-3135D01*
G02X168900Y34692I361J-173D01*
G01Y2700D01*
X111213D01*
G02X111072Y3041I1J200D01*
G37*
G36*
G01X87602Y61102D02*
Y81479D01*
X84379Y84702D01*
X80002D01*
Y91700D01*
X99598D01*
Y61102D01*
X87602D01*
G37*
%LPC*%
G75*
G36*
G01X155502Y53652D02*
Y46348D01*
X149498D01*
Y53652D01*
X150248D01*
Y57533D01*
X151008Y58292D01*
G02X154760Y56064I1592J-1592D01*
G01X154752Y56036D01*
Y53652D01*
X155502D01*
G37*
G36*
G01X127752Y43202D02*
Y37198D01*
X120448D01*
Y37948D01*
X116300D01*
G02Y42452I0J2252D01*
G01X120448D01*
Y43202D01*
X127752D01*
G37*
G54D29*
X156600Y12700D03*
G54D28*
X89100D03*
X136600D03*
G54D27*
X64000Y56500D03*
X64100Y82700D03*
X124100Y47700D03*
G54D26*
X22500Y67500D03*
X30000Y55000D03*
X156600Y85200D03*
X145000Y50000D03*
X146600Y62700D03*
X147500Y81700D03*
%LPD*%
G75*
G54D10*
X22600Y5200D03*
X62600D03*
G54D20*
X77000Y79500D03*
Y76300D03*
Y73100D03*
Y69900D03*
Y66700D03*
Y98700D03*
Y95500D03*
Y92300D03*
Y89100D03*
Y85900D03*
Y82700D03*
X126200Y66700D03*
Y69900D03*
Y73100D03*
Y76300D03*
Y79500D03*
Y85900D03*
Y89100D03*
Y92300D03*
Y95500D03*
Y98700D03*
Y82700D03*
G54D11*
X9100Y15200D03*
Y5200D03*
Y25200D03*
X46600Y37700D03*
X36600D03*
X46600Y107700D03*
X36600D03*
X26600D03*
X39100Y147700D03*
Y157700D03*
Y167700D03*
Y177700D03*
Y187700D03*
Y197700D03*
Y207700D03*
X66600Y107700D03*
X56600D03*
X69100Y167700D03*
Y157700D03*
Y147700D03*
Y197700D03*
Y187700D03*
Y177700D03*
Y217700D03*
Y207700D03*
X76600Y237700D03*
X106600D03*
X96600D03*
X86600D03*
X116600D03*
G54D12*
X22500Y67500D03*
Y55000D03*
X21600Y90200D03*
X30000Y67500D03*
Y55000D03*
X29100Y90200D03*
X51600Y167700D03*
Y157700D03*
Y147700D03*
Y187700D03*
Y177700D03*
Y197700D03*
Y217700D03*
Y207700D03*
X49100Y237700D03*
X41600D03*
X61600Y35200D03*
X69100D03*
Y132700D03*
X61600D03*
X59100Y167700D03*
Y157700D03*
Y147700D03*
Y187700D03*
Y177700D03*
Y197700D03*
Y217700D03*
Y207700D03*
X101700Y218300D03*
X94200D03*
X139100Y62700D03*
X140000Y81700D03*
X152500Y50000D03*
X145000D03*
X146600Y62700D03*
X147500Y81700D03*
X156600Y97700D03*
X164100D03*
Y85200D03*
X156600D03*
G54D21*
X109100Y12700D03*
X156600D03*
G54D22*
X89100D03*
X136600D03*
G54D13*
X14300Y55000D03*
X26200Y61200D03*
X28300Y81700D03*
X21700Y82700D03*
X71550Y50250D03*
X64350Y43150D03*
X54400Y75200D03*
X54500Y55500D03*
X70700Y70600D03*
X76800Y112000D03*
X89200Y31900D03*
X104400Y36400D03*
X109500Y43900D03*
X104400Y47700D03*
Y44000D03*
X104300Y40200D03*
X85600Y51500D03*
X104800Y98100D03*
X108000Y87500D03*
X111200D03*
X101600Y101400D03*
X95200Y115200D03*
X98400Y115000D03*
X101600D03*
X104800D03*
X108000D03*
X111200Y155100D03*
X83600Y225000D03*
X116300Y40200D03*
X138600Y50000D03*
X140900Y75000D03*
X124100Y53800D03*
X126100Y109900D03*
X133900Y81700D03*
X122800Y113400D03*
X138400Y131300D03*
X134300Y202500D03*
X160250Y78250D03*
X152600Y56700D03*
X155400Y71200D03*
X150200Y68500D03*
X150100Y71500D03*
X149900Y75400D03*
X163700Y105400D03*
X144900Y137700D03*
X141700Y134500D03*
X148200Y141100D03*
G54D14*
X12300Y126500D03*
X12400Y239400D03*
X161600Y38000D03*
X165800Y239300D03*
G54D23*
X85600Y58100D03*
X88800D03*
X92000D03*
X95200D03*
X98400D03*
X101600D03*
X104800D03*
X108000D03*
Y107300D03*
X104800D03*
X101600D03*
X98400D03*
X95200D03*
X92000D03*
X88800D03*
X85600D03*
X111200Y58100D03*
X114400D03*
X117600D03*
Y107300D03*
X114400D03*
X111200D03*
G54D24*
G01X98400Y58100D02*
Y45800D01*
X91900Y39300D01*
X73800D01*
X66200Y46900D01*
X13300D01*
X10000Y50200D01*
Y98455D01*
X30900Y119355D01*
Y236900D01*
X38200Y244200D01*
X47250D01*
X49100Y242350D01*
Y237700D01*
G01X77000Y89100D02*
X58900D01*
X46600Y76800D01*
Y59550D01*
G01D02*
Y55200D01*
G01X30000Y67500D02*
X38650D01*
X46600Y59550D01*
G01Y90200D02*
X29100D01*
G01X77000Y92300D02*
X50950D01*
X48850Y90200D01*
X46600D01*
G01X39100Y147700D02*
X51600D01*
G01Y157700D02*
X39100D01*
G01X51600Y167700D02*
X39100D01*
G01X51600Y187700D02*
X39100D01*
G01X51600Y197700D02*
X39100D01*
G01X51600Y177700D02*
X39100D01*
G01X51600Y207700D02*
X39100D01*
G01Y217700D02*
X51600D01*
G01X66600Y237700D02*
X49100D01*
G01X69100Y35200D02*
X70800Y33500D01*
Y3900D01*
X72000Y2700D01*
X107900D01*
X109100Y3900D01*
Y12700D01*
G01X64350Y43150D02*
X69100Y38400D01*
Y35200D01*
G01X76600Y54649D02*
Y58905D01*
X81700Y64005D01*
Y78162D01*
X80412Y79450D01*
X79846D01*
X79796Y79500D01*
X77000D01*
G01Y66700D02*
X71350D01*
X68650Y64000D01*
X64000D01*
G01X77000Y82700D02*
X73000D01*
X71100Y80800D01*
G01X70700Y70600D02*
X73200Y73100D01*
X77000D01*
G01Y82700D02*
X83550D01*
X85600Y80650D01*
Y58100D01*
G01X77000Y85900D02*
X73000D01*
G01X77000D02*
X82100D01*
G01X76800Y112000D02*
X87462D01*
X88750Y110712D01*
Y107350D01*
X88800Y107300D01*
G01X80800Y186700D02*
X87300D01*
X90300Y183700D01*
Y115000D01*
X92000Y113300D01*
Y107300D01*
G01X117600D02*
Y205000D01*
X112300Y210300D01*
X80800D01*
G01X104800Y58100D02*
Y98100D01*
G01X108000Y87500D02*
Y58100D01*
G01X101600D02*
Y101400D01*
G01X85600Y58100D02*
Y51500D01*
G01X88800Y58100D02*
Y62400D01*
G01Y58100D02*
Y53600D01*
G01X95200Y115200D02*
Y107300D01*
G01X98400D02*
Y115000D01*
G01X101600Y107300D02*
Y115000D01*
G01X104800Y107300D02*
Y115000D01*
G01X108000D02*
Y107300D01*
G01X122800Y113400D02*
Y211500D01*
X96600Y237700D01*
G01X126100Y109900D02*
Y218200D01*
X106600Y237700D01*
G01X111200Y87500D02*
Y58100D01*
G01X139100Y62700D02*
Y67400D01*
X131500Y75000D01*
G01D02*
X130200Y76300D01*
X126200D01*
G01X140900Y75000D02*
X131500D01*
G01X132140Y79614D02*
X132026Y79500D01*
X126200D01*
G01Y98700D02*
X127750D01*
X134250Y105200D01*
Y131676D01*
X134300Y131726D01*
Y202500D01*
G01X138400Y131300D02*
Y104178D01*
X129722Y95500D01*
X126200D01*
G01Y89100D02*
X132374D01*
X144900Y101626D01*
Y137700D01*
G01X126200Y92300D02*
X131048D01*
X141700Y102952D01*
Y134500D01*
G01X126200Y85900D02*
X133700D01*
X148200Y100400D01*
Y141100D01*
G01X111200Y155100D02*
Y107300D01*
G01X126200Y82700D02*
X119400D01*
G54D15*
X46600Y55200D03*
Y90200D03*
G54D25*
G01X9100Y25200D02*
X17900Y16400D01*
X58299D01*
X61600Y19701D01*
Y35200D01*
G01X22500Y55000D02*
X14300D01*
G01X19298Y67500D02*
X22500D01*
G01X26600Y107700D02*
Y99082D01*
X21600Y94082D01*
Y90200D01*
G01X30000Y51148D02*
Y55000D01*
G01X22500Y67500D02*
Y63648D01*
G01X30000Y55000D02*
Y58852D01*
G01Y55000D02*
X33202D01*
G01X22500Y67500D02*
Y71352D01*
G01X69100Y132700D02*
Y131085D01*
X65115Y127100D01*
X46000D01*
X26600Y107700D01*
G01X21600Y90200D02*
Y85650D01*
G01X41600Y237700D02*
Y236085D01*
X45585Y232100D01*
X49600D01*
X59100Y222600D01*
Y219300D01*
G01X76600Y45200D02*
X73472D01*
X71550Y47122D01*
Y50250D01*
G01X71100Y80800D02*
Y77300D01*
X69000Y75200D01*
X64100D01*
G01D02*
X54400D01*
G01X64000Y53298D02*
Y56500D01*
G01X60148D02*
X64000D01*
G01D02*
X67852D01*
G01X64100Y82700D02*
X58800D01*
G01X68800Y84400D02*
X67100Y82700D01*
X64100D01*
G01X59100Y147700D02*
Y140100D01*
X61600Y137600D01*
Y132700D01*
G01X69100Y147700D02*
Y132700D01*
G01X59100Y167700D02*
Y177700D01*
G01Y157700D02*
Y167700D01*
G01Y147700D02*
Y157700D01*
G01X69100D02*
Y147700D01*
G01Y167700D02*
Y157700D01*
G01Y177700D02*
Y167700D01*
G01X59100Y187700D02*
Y197700D01*
G01Y177700D02*
Y187700D01*
G01Y197700D02*
Y207700D01*
G01X69100Y187700D02*
Y177700D01*
G01Y197700D02*
Y187700D01*
G01Y207700D02*
Y197700D01*
G01X59100Y219300D02*
Y217700D01*
G01Y219300D02*
X62950Y223150D01*
X75950D01*
X76600Y222500D01*
G01D02*
X80800Y218300D01*
G01X76600Y237700D02*
Y222500D01*
G01X59100Y207700D02*
Y217700D01*
G01X94200Y218300D02*
X80800D01*
G01X69100Y217700D02*
Y207700D01*
G01X89100Y8498D02*
Y12700D01*
G01D02*
Y16902D01*
G01X84898Y12700D02*
X89100D01*
G01D02*
X93302D01*
G01X83600Y225000D02*
X99900D01*
X101700Y223200D01*
Y218300D01*
G01X136600Y8498D02*
Y12700D01*
G01D02*
Y16902D01*
G01X132398Y12700D02*
X136600D01*
G01D02*
X140802D01*
G01X124100Y40200D02*
X116300D01*
G01X138600Y50000D02*
X145000D01*
G01X124100Y53800D02*
Y47700D01*
G01X120248D02*
X124100D01*
G01D02*
X127952D01*
G01X133900Y81700D02*
Y81374D01*
X132140Y79614D01*
G01X140000Y81700D02*
X133900D01*
G01X152500Y50000D02*
Y56600D01*
X152600Y56700D01*
G01X145000Y46148D02*
Y50000D01*
G01D02*
Y53852D01*
G01X160250Y78250D02*
X164100Y82100D01*
Y85200D01*
G01X163700Y105400D02*
X166650D01*
X171000Y101050D01*
Y75350D01*
X165650Y70000D01*
X165000D01*
G01X147500Y77848D02*
Y81700D01*
G01X146600Y58848D02*
Y62700D01*
G01D02*
Y66552D01*
G01Y62700D02*
X149802D01*
G01X165000Y59298D02*
Y62500D01*
G01X161148D02*
X165000D01*
G01X164100Y85200D02*
Y97700D01*
G01X163700Y105400D02*
X159400D01*
X156600Y102600D01*
Y97700D01*
G01Y81348D02*
Y85200D01*
G01D02*
Y89052D01*
G01X153398Y85200D02*
X156600D01*
G01X147500Y81700D02*
Y85552D01*
G01Y81700D02*
X150702D01*
G54D16*
X52600Y25200D03*
X80800Y147100D03*
Y155100D03*
Y162900D03*
Y170900D03*
Y178700D03*
Y186700D03*
Y194500D03*
Y202500D03*
Y210300D03*
Y218300D03*
X167400Y170900D03*
Y162900D03*
Y155100D03*
Y147100D03*
Y202500D03*
Y194500D03*
Y186700D03*
Y178700D03*
Y218300D03*
Y210300D03*
G54D17*
X42600Y25200D03*
X26600Y37700D03*
X39100Y217700D03*
X66600Y237700D03*
G54D18*
X76600Y45200D03*
Y54649D03*
G54D19*
X64000Y56500D03*
Y64000D03*
X64100Y82700D03*
Y75200D03*
X124100Y40200D03*
Y47700D03*
X165000Y70000D03*
Y62500D03*
M02*
