G04 ================== begin FILE IDENTIFICATION RECORD ==================*
G04 Layout Name:  E:/cegep/cours/1Hiver_2014/Projet/pcb/board6DFfils7Fini.brd*
G04 Film Name:    silkscreen_bottom*
G04 File Format:  Gerber RS274X*
G04 File Origin:  Cadence Allegro 16.6-S021*
G04 Origin Date:  Wed Apr 02 17:29:18 2014*
G04 *
G04 Layer:  REF DES/SILKSCREEN_BOTTOM*
G04 Layer:  PACKAGE GEOMETRY/ASSEMBLY_BOTTOM*
G04 Layer:  BOARD GEOMETRY/OUTLINE*
G04 Layer:  BOARD GEOMETRY/SOLDERMASK_BOTTOM*
G04 *
G04 Offset:    (0.00 0.00)*
G04 Mirror:    No*
G04 Mode:      Positive*
G04 Rotation:  0*
G04 FullContactRelief:  No*
G04 UndefLineWidth:     10.00*
G04 ================== end FILE IDENTIFICATION RECORD ====================*
%FSLAX25Y25*MOIN*%
%IR0*IPPOS*OFA0.00000B0.00000*MIA0B0*SFA1.00000B1.00000*%
%ADD10C,.01*%
%ADD11C,.005*%
G75*
%LPD*%
G75*
G54D10*
G01X174100Y247700D02*
X4100D01*
Y-2300D01*
X174100D01*
Y247700D01*
G01X14100Y30200D02*
Y-60800D01*
X71600D01*
Y30200D01*
X14100D01*
G01X17700Y19207D02*
X17117Y19587D01*
X16783Y20093D01*
X16700Y20663D01*
X16783Y21170D01*
X17200Y21677D01*
X17700Y21993D01*
X18200Y22057D01*
X18783Y21930D01*
X19200Y21487D01*
X19367Y21043D01*
Y20473D01*
G01Y21043D02*
X19617Y21423D01*
X20033Y21740D01*
X20533Y21867D01*
X21033Y21740D01*
X21450Y21423D01*
X21700Y20853D01*
X21617Y20283D01*
X21283Y19713D01*
G01X16533Y25700D02*
X16617Y25573D01*
X16783D01*
X16867Y25700D01*
X16783Y25827D01*
X16617D01*
X16533Y25700D01*
G01X17700Y29407D02*
X17117Y29787D01*
X16783Y30293D01*
X16700Y30863D01*
X16783Y31370D01*
X17200Y31877D01*
X17700Y32193D01*
X18200Y32257D01*
X18783Y32130D01*
X19200Y31687D01*
X19367Y31243D01*
Y30673D01*
G01Y31243D02*
X19617Y31623D01*
X20033Y31940D01*
X20533Y32067D01*
X21033Y31940D01*
X21450Y31623D01*
X21700Y31053D01*
X21617Y30483D01*
X21283Y29913D01*
G01X21700Y34317D02*
X16700Y35900D01*
X21700Y37483D01*
G01X17450Y2607D02*
X17033Y2987D01*
X16783Y3430D01*
X16700Y4000D01*
X16867Y4570D01*
X17200Y5013D01*
X17783Y5330D01*
X18450Y5393D01*
X19117Y5267D01*
X19533Y4950D01*
X19867Y4507D01*
X19950Y4063D01*
X19867Y3620D01*
X19533Y3050D01*
X21700Y3240D01*
Y4950D01*
G01Y7517D02*
X16700Y9100D01*
X21700Y10683D01*
G01X29807Y48583D02*
X30187Y48833D01*
X30630Y49000D01*
X31137D01*
X31707Y48750D01*
X32150Y48333D01*
X32467Y47833D01*
X32720Y47000D01*
X32783Y46250D01*
X32657Y45500D01*
X32467Y45000D01*
X32087Y44500D01*
X31643Y44167D01*
X31200Y44000D01*
X30757D01*
X30313Y44167D01*
X29933Y44417D01*
X29617Y44750D01*
G01X26100Y44000D02*
Y49000D01*
X26860Y48000D01*
G01Y44000D02*
X25340D01*
G01X20240D02*
Y49000D01*
X22583Y45417D01*
X19417D01*
G01X16217Y33400D02*
X15900Y32900D01*
X15520Y32567D01*
X15077Y32400D01*
X14570Y32567D01*
X14190Y32900D01*
X13810Y33400D01*
X13683Y34067D01*
Y37400D01*
G01X11053Y36567D02*
X10673Y37067D01*
X10230Y37317D01*
X9723Y37400D01*
X9090Y37233D01*
X8647Y36817D01*
X8520Y36317D01*
X8583Y35817D01*
X8837Y35400D01*
X10103Y34567D01*
X10673Y33983D01*
X11053Y33150D01*
X11180Y32400D01*
X8520D01*
G01X29207Y99583D02*
X29587Y99833D01*
X30030Y100000D01*
X30537D01*
X31107Y99750D01*
X31550Y99333D01*
X31867Y98833D01*
X32120Y98000D01*
X32183Y97250D01*
X32057Y96500D01*
X31867Y96000D01*
X31487Y95500D01*
X31043Y95167D01*
X30600Y95000D01*
X30157D01*
X29713Y95167D01*
X29333Y95417D01*
X29017Y95750D01*
G01X25500Y95000D02*
Y100000D01*
X26260Y99000D01*
G01Y95000D02*
X24740D01*
G01X20400Y100000D02*
X20907Y99833D01*
X21287Y99417D01*
X21540Y98917D01*
X21730Y98250D01*
X21793Y97500D01*
X21730Y96750D01*
X21540Y96083D01*
X21287Y95583D01*
X20907Y95167D01*
X20400Y95000D01*
X19893Y95167D01*
X19513Y95583D01*
X19260Y96083D01*
X19070Y96750D01*
X19007Y97500D01*
X19070Y98250D01*
X19260Y98917D01*
X19513Y99417D01*
X19893Y99833D01*
X20400Y100000D01*
G01X55400Y93900D02*
Y51500D01*
X37800D01*
Y93900D01*
X55400D01*
G01X27507Y78883D02*
X27887Y79133D01*
X28330Y79300D01*
X28837D01*
X29407Y79050D01*
X29850Y78633D01*
X30167Y78133D01*
X30420Y77300D01*
X30483Y76550D01*
X30357Y75800D01*
X30167Y75300D01*
X29787Y74800D01*
X29343Y74467D01*
X28900Y74300D01*
X28457D01*
X28013Y74467D01*
X27633Y74717D01*
X27317Y75050D01*
G01X24877Y74883D02*
X24433Y74467D01*
X23927Y74300D01*
X23420Y74467D01*
X22977Y74967D01*
X22660Y75717D01*
X22533Y76467D01*
Y77383D01*
X22660Y78133D01*
X22977Y78800D01*
X23357Y79133D01*
X23800Y79300D01*
X24307Y79133D01*
X24687Y78800D01*
X24940Y78300D01*
X25067Y77633D01*
X24940Y77050D01*
X24623Y76467D01*
X24243Y76133D01*
X23800Y76050D01*
X23293Y76217D01*
X22913Y76633D01*
X22533Y77383D01*
G01X53100Y97500D02*
Y99750D01*
X54367Y102500D01*
G01X51833D02*
X53100Y99750D01*
G01X48000Y97500D02*
Y102500D01*
X48760Y101500D01*
G01Y97500D02*
X47240D01*
G01X47500Y172117D02*
X44400D01*
Y171158D01*
X44555Y170852D01*
X44762Y170660D01*
X45175Y170583D01*
X45588Y170660D01*
X45847Y170890D01*
X46002Y171158D01*
Y172117D01*
G01Y171158D02*
X47500Y170583D01*
G01Y168250D02*
X44400D01*
X45020Y168710D01*
G01X47500D02*
Y167790D01*
G01X46880Y165993D02*
X47242Y165763D01*
X47448Y165457D01*
X47500Y165112D01*
X47448Y164805D01*
X47190Y164498D01*
X46880Y164307D01*
X46570Y164268D01*
X46208Y164345D01*
X45950Y164613D01*
X45847Y164882D01*
Y165227D01*
G01Y164882D02*
X45692Y164652D01*
X45433Y164460D01*
X45123Y164383D01*
X44813Y164460D01*
X44555Y164652D01*
X44400Y164997D01*
X44452Y165342D01*
X44658Y165687D01*
G01X47500Y162117D02*
X44400D01*
Y161158D01*
X44555Y160852D01*
X44762Y160660D01*
X45175Y160583D01*
X45588Y160660D01*
X45847Y160890D01*
X46002Y161158D01*
Y162117D01*
G01Y161158D02*
X47500Y160583D01*
G01Y158250D02*
X44400D01*
X45020Y158710D01*
G01X47500D02*
Y157790D01*
G01Y154690D02*
X44400D01*
X46622Y156108D01*
Y154192D01*
G01X47500Y152117D02*
X44400D01*
Y151158D01*
X44555Y150852D01*
X44762Y150660D01*
X45175Y150583D01*
X45588Y150660D01*
X45847Y150890D01*
X46002Y151158D01*
Y152117D01*
G01Y151158D02*
X47500Y150583D01*
G01Y148250D02*
X44400D01*
X45020Y148710D01*
G01X47500D02*
Y147790D01*
G01X47035Y145993D02*
X47293Y145763D01*
X47448Y145495D01*
X47500Y145150D01*
X47397Y144805D01*
X47190Y144537D01*
X46828Y144345D01*
X46415Y144307D01*
X46002Y144383D01*
X45743Y144575D01*
X45537Y144843D01*
X45485Y145112D01*
X45537Y145380D01*
X45743Y145725D01*
X44400Y145610D01*
Y144575D01*
G01X47500Y192117D02*
X44400D01*
Y191158D01*
X44555Y190852D01*
X44762Y190660D01*
X45175Y190583D01*
X45588Y190660D01*
X45847Y190890D01*
X46002Y191158D01*
Y192117D01*
G01Y191158D02*
X47500Y190583D01*
G01Y188250D02*
X44400D01*
X45020Y188710D01*
G01X47500D02*
Y187790D01*
G01Y185150D02*
X44400D01*
X45020Y185610D01*
G01X47500D02*
Y184690D01*
G01Y182117D02*
X44400D01*
Y181158D01*
X44555Y180852D01*
X44762Y180660D01*
X45175Y180583D01*
X45588Y180660D01*
X45847Y180890D01*
X46002Y181158D01*
Y182117D01*
G01Y181158D02*
X47500Y180583D01*
G01Y178250D02*
X44400D01*
X45020Y178710D01*
G01X47500D02*
Y177790D01*
G01X44917Y175878D02*
X44607Y175648D01*
X44452Y175380D01*
X44400Y175073D01*
X44503Y174690D01*
X44762Y174422D01*
X45072Y174345D01*
X45382Y174383D01*
X45640Y174537D01*
X46157Y175303D01*
X46518Y175648D01*
X47035Y175878D01*
X47500Y175955D01*
Y174345D01*
G01Y202117D02*
X44400D01*
Y201158D01*
X44555Y200852D01*
X44762Y200660D01*
X45175Y200583D01*
X45588Y200660D01*
X45847Y200890D01*
X46002Y201158D01*
Y202117D01*
G01Y201158D02*
X47500Y200583D01*
G01Y198250D02*
X44400D01*
X45020Y198710D01*
G01X47500D02*
Y197790D01*
G01X44400Y195150D02*
X44503Y195457D01*
X44762Y195687D01*
X45072Y195840D01*
X45485Y195955D01*
X45950Y195993D01*
X46415Y195955D01*
X46828Y195840D01*
X47138Y195687D01*
X47397Y195457D01*
X47500Y195150D01*
X47397Y194843D01*
X47138Y194613D01*
X46828Y194460D01*
X46415Y194345D01*
X45950Y194307D01*
X45485Y194345D01*
X45072Y194460D01*
X44762Y194613D01*
X44503Y194843D01*
X44400Y195150D01*
G01X47300Y221617D02*
X44200D01*
Y220658D01*
X44355Y220352D01*
X44562Y220160D01*
X44975Y220083D01*
X45388Y220160D01*
X45647Y220390D01*
X45802Y220658D01*
Y221617D01*
G01Y220658D02*
X47300Y220083D01*
G01Y217750D02*
X47248Y217482D01*
X47093Y217175D01*
X46835Y216983D01*
X46473Y216907D01*
X46112Y216983D01*
X45802Y217213D01*
X45647Y217558D01*
Y217942D01*
X45543Y218172D01*
X45285Y218363D01*
X44923Y218440D01*
X44562Y218325D01*
X44303Y218057D01*
X44200Y217750D01*
X44303Y217443D01*
X44562Y217175D01*
X44923Y217060D01*
X45285Y217137D01*
X45543Y217328D01*
X45647Y217558D01*
Y217942D01*
X45802Y218287D01*
X46112Y218517D01*
X46473Y218593D01*
X46835Y218517D01*
X47093Y218325D01*
X47248Y218018D01*
X47300Y217750D01*
G01X47500Y212117D02*
X44400D01*
Y211158D01*
X44555Y210852D01*
X44762Y210660D01*
X45175Y210583D01*
X45588Y210660D01*
X45847Y210890D01*
X46002Y211158D01*
Y212117D01*
G01Y211158D02*
X47500Y210583D01*
G01X47138Y208902D02*
X47397Y208633D01*
X47500Y208327D01*
X47397Y208020D01*
X47087Y207752D01*
X46622Y207560D01*
X46157Y207483D01*
X45588D01*
X45123Y207560D01*
X44710Y207752D01*
X44503Y207982D01*
X44400Y208250D01*
X44503Y208557D01*
X44710Y208787D01*
X45020Y208940D01*
X45433Y209017D01*
X45795Y208940D01*
X46157Y208748D01*
X46363Y208518D01*
X46415Y208250D01*
X46312Y207943D01*
X46053Y207713D01*
X45588Y207483D01*
G01X33567Y236100D02*
Y241100D01*
X31983D01*
X31477Y240850D01*
X31160Y240517D01*
X31033Y239850D01*
X31160Y239183D01*
X31540Y238767D01*
X31983Y238517D01*
X33567D01*
G01X31983D02*
X31033Y236100D01*
G01X28403Y238183D02*
X27960Y238767D01*
X27580Y239100D01*
X27073Y239267D01*
X26630Y239100D01*
X26313Y238767D01*
X26060Y238267D01*
X25997Y237683D01*
X26060Y237183D01*
X26313Y236683D01*
X26693Y236267D01*
X27137Y236100D01*
X27643Y236267D01*
X28087Y236767D01*
X28340Y237517D01*
X28403Y238350D01*
X28277Y239433D01*
X28087Y240017D01*
X27770Y240600D01*
X27327Y241017D01*
X26883Y241100D01*
X26440Y240933D01*
X26123Y240517D01*
G01X71867Y40000D02*
Y45000D01*
X70283D01*
X69777Y44750D01*
X69460Y44417D01*
X69333Y43750D01*
X69460Y43083D01*
X69840Y42667D01*
X70283Y42417D01*
X71867D01*
G01X70283D02*
X69333Y40000D01*
G01X65627D02*
X65500Y41083D01*
X65310Y42000D01*
X65057Y42833D01*
X64740Y43750D01*
X64233Y45000D01*
X66767D01*
G01X75320Y47857D02*
Y51991D01*
X77880D01*
Y47857D01*
X75320D01*
G01X78807Y61983D02*
X79187Y62233D01*
X79630Y62400D01*
X80137D01*
X80707Y62150D01*
X81150Y61733D01*
X81467Y61233D01*
X81720Y60400D01*
X81783Y59650D01*
X81657Y58900D01*
X81467Y58400D01*
X81087Y57900D01*
X80643Y57567D01*
X80200Y57400D01*
X79757D01*
X79313Y57567D01*
X78933Y57817D01*
X78617Y58150D01*
G01X75100Y57400D02*
Y62400D01*
X75860Y61400D01*
G01Y57400D02*
X74340D01*
G01X70000D02*
Y62400D01*
X70760Y61400D01*
G01Y57400D02*
X69240D01*
G01X71307Y92683D02*
X71687Y92933D01*
X72130Y93100D01*
X72637D01*
X73207Y92850D01*
X73650Y92433D01*
X73967Y91933D01*
X74220Y91100D01*
X74283Y90350D01*
X74157Y89600D01*
X73967Y89100D01*
X73587Y88600D01*
X73143Y88267D01*
X72700Y88100D01*
X72257D01*
X71813Y88267D01*
X71433Y88517D01*
X71117Y88850D01*
G01X67600Y88100D02*
Y93100D01*
X68360Y92100D01*
G01Y88100D02*
X66840D01*
G01X63703Y92267D02*
X63323Y92767D01*
X62880Y93017D01*
X62373Y93100D01*
X61740Y92933D01*
X61297Y92517D01*
X61170Y92017D01*
X61233Y91517D01*
X61487Y91100D01*
X62753Y90267D01*
X63323Y89683D01*
X63703Y88850D01*
X63830Y88100D01*
X61170D01*
G01X69207Y142083D02*
X69587Y142333D01*
X70030Y142500D01*
X70537D01*
X71107Y142250D01*
X71550Y141833D01*
X71867Y141333D01*
X72120Y140500D01*
X72183Y139750D01*
X72057Y139000D01*
X71867Y138500D01*
X71487Y138000D01*
X71043Y137667D01*
X70600Y137500D01*
X70157D01*
X69713Y137667D01*
X69333Y137917D01*
X69017Y138250D01*
G01X65627Y137500D02*
X65500Y138583D01*
X65310Y139500D01*
X65057Y140333D01*
X64740Y141250D01*
X64233Y142500D01*
X66767D01*
G01X61600Y242700D02*
X121600D01*
Y232700D01*
X61600D01*
X59100Y235200D01*
Y240200D01*
X61600Y242700D01*
G01X121200Y100300D02*
X119200Y102300D01*
X84000D01*
X82000Y100300D01*
Y65100D01*
X84000Y63100D01*
X119200D01*
X121200Y65100D01*
Y100300D01*
G01X101707Y229583D02*
X102087Y229833D01*
X102530Y230000D01*
X103037D01*
X103607Y229750D01*
X104050Y229333D01*
X104367Y228833D01*
X104620Y228000D01*
X104683Y227250D01*
X104557Y226500D01*
X104367Y226000D01*
X103987Y225500D01*
X103543Y225167D01*
X103100Y225000D01*
X102657D01*
X102213Y225167D01*
X101833Y225417D01*
X101517Y225750D01*
G01X98000Y225000D02*
X97557Y225083D01*
X97050Y225333D01*
X96733Y225750D01*
X96607Y226333D01*
X96733Y226917D01*
X97113Y227417D01*
X97683Y227667D01*
X98317D01*
X98697Y227833D01*
X99013Y228250D01*
X99140Y228833D01*
X98950Y229417D01*
X98507Y229833D01*
X98000Y230000D01*
X97493Y229833D01*
X97050Y229417D01*
X96860Y228833D01*
X96987Y228250D01*
X97303Y227833D01*
X97683Y227667D01*
X98317D01*
X98887Y227417D01*
X99267Y226917D01*
X99393Y226333D01*
X99267Y225750D01*
X98950Y225333D01*
X98443Y225083D01*
X98000Y225000D01*
G01X124207Y57083D02*
X124587Y57333D01*
X125030Y57500D01*
X125537D01*
X126107Y57250D01*
X126550Y56833D01*
X126867Y56333D01*
X127120Y55500D01*
X127183Y54750D01*
X127057Y54000D01*
X126867Y53500D01*
X126487Y53000D01*
X126043Y52667D01*
X125600Y52500D01*
X125157D01*
X124713Y52667D01*
X124333Y52917D01*
X124017Y53250D01*
G01X121893D02*
X121513Y52833D01*
X121070Y52583D01*
X120500Y52500D01*
X119930Y52667D01*
X119487Y53000D01*
X119170Y53583D01*
X119107Y54250D01*
X119233Y54917D01*
X119550Y55333D01*
X119993Y55667D01*
X120437Y55750D01*
X120880Y55667D01*
X121450Y55333D01*
X121260Y57500D01*
X119550D01*
G01X147607Y91883D02*
X147987Y92133D01*
X148430Y92300D01*
X148937D01*
X149507Y92050D01*
X149950Y91633D01*
X150267Y91133D01*
X150520Y90300D01*
X150583Y89550D01*
X150457Y88800D01*
X150267Y88300D01*
X149887Y87800D01*
X149443Y87467D01*
X149000Y87300D01*
X148557D01*
X148113Y87467D01*
X147733Y87717D01*
X147417Y88050D01*
G01X143900Y87300D02*
Y92300D01*
X144660Y91300D01*
G01Y87300D02*
X143140D01*
G01X140193Y88300D02*
X139813Y87717D01*
X139307Y87383D01*
X138737Y87300D01*
X138230Y87383D01*
X137723Y87800D01*
X137407Y88300D01*
X137343Y88800D01*
X137470Y89383D01*
X137913Y89800D01*
X138357Y89967D01*
X138927D01*
G01X138357D02*
X137977Y90217D01*
X137660Y90633D01*
X137533Y91133D01*
X137660Y91633D01*
X137977Y92050D01*
X138547Y92300D01*
X139117Y92217D01*
X139687Y91883D01*
G01X130893Y107500D02*
Y103917D01*
X130640Y103167D01*
X130133Y102667D01*
X129500Y102500D01*
X128867Y102667D01*
X128360Y103167D01*
X128107Y103917D01*
Y107500D01*
G01X125793Y103500D02*
X125413Y102917D01*
X124907Y102583D01*
X124337Y102500D01*
X123830Y102583D01*
X123323Y103000D01*
X123007Y103500D01*
X122943Y104000D01*
X123070Y104583D01*
X123513Y105000D01*
X123957Y105167D01*
X124527D01*
G01X123957D02*
X123577Y105417D01*
X123260Y105833D01*
X123133Y106333D01*
X123260Y106833D01*
X123577Y107250D01*
X124147Y107500D01*
X124717Y107417D01*
X125287Y107083D01*
G01X120300Y99300D02*
G03I-2100J0D01*
G01X131317Y238500D02*
X131000Y238000D01*
X130620Y237667D01*
X130177Y237500D01*
X129670Y237667D01*
X129290Y238000D01*
X128910Y238500D01*
X128783Y239167D01*
Y242500D01*
G01X126153Y239583D02*
X125710Y240167D01*
X125330Y240500D01*
X124823Y240667D01*
X124380Y240500D01*
X124063Y240167D01*
X123810Y239667D01*
X123747Y239083D01*
X123810Y238583D01*
X124063Y238083D01*
X124443Y237667D01*
X124887Y237500D01*
X125393Y237667D01*
X125837Y238167D01*
X126090Y238917D01*
X126153Y239750D01*
X126027Y240833D01*
X125837Y241417D01*
X125520Y242000D01*
X125077Y242417D01*
X124633Y242500D01*
X124190Y242333D01*
X123873Y241917D01*
G01X163707Y51983D02*
X164087Y52233D01*
X164530Y52400D01*
X165037D01*
X165607Y52150D01*
X166050Y51733D01*
X166367Y51233D01*
X166620Y50400D01*
X166683Y49650D01*
X166557Y48900D01*
X166367Y48400D01*
X165987Y47900D01*
X165543Y47567D01*
X165100Y47400D01*
X164657D01*
X164213Y47567D01*
X163833Y47817D01*
X163517Y48150D01*
G01X160000Y47400D02*
Y52400D01*
X160760Y51400D01*
G01Y47400D02*
X159240D01*
G01X149367Y67500D02*
Y72500D01*
X147783D01*
X147277Y72250D01*
X146960Y71917D01*
X146833Y71250D01*
X146960Y70583D01*
X147340Y70167D01*
X147783Y69917D01*
X149367D01*
G01X147783D02*
X146833Y67500D01*
G01X144203Y71667D02*
X143823Y72167D01*
X143380Y72417D01*
X142873Y72500D01*
X142240Y72333D01*
X141797Y71917D01*
X141670Y71417D01*
X141733Y70917D01*
X141987Y70500D01*
X143253Y69667D01*
X143823Y69083D01*
X144203Y68250D01*
X144330Y67500D01*
X141670D01*
G01X165907Y79383D02*
X166287Y79633D01*
X166730Y79800D01*
X167237D01*
X167807Y79550D01*
X168250Y79133D01*
X168567Y78633D01*
X168820Y77800D01*
X168883Y77050D01*
X168757Y76300D01*
X168567Y75800D01*
X168187Y75300D01*
X167743Y74967D01*
X167300Y74800D01*
X166857D01*
X166413Y74967D01*
X166033Y75217D01*
X165717Y75550D01*
G01X163593Y75800D02*
X163213Y75217D01*
X162707Y74883D01*
X162137Y74800D01*
X161630Y74883D01*
X161123Y75300D01*
X160807Y75800D01*
X160743Y76300D01*
X160870Y76883D01*
X161313Y77300D01*
X161757Y77467D01*
X162327D01*
G01X161757D02*
X161377Y77717D01*
X161060Y78133D01*
X160933Y78633D01*
X161060Y79133D01*
X161377Y79550D01*
X161947Y79800D01*
X162517Y79717D01*
X163087Y79383D01*
G01X163467Y105000D02*
Y110000D01*
X161883D01*
X161377Y109750D01*
X161060Y109417D01*
X160933Y108750D01*
X161060Y108083D01*
X161440Y107667D01*
X161883Y107417D01*
X163467D01*
G01X161883D02*
X160933Y105000D01*
G01X157100D02*
Y110000D01*
X157860Y109000D01*
G01Y105000D02*
X156340D01*
G01X163117Y89800D02*
Y92900D01*
X162158D01*
X161852Y92745D01*
X161660Y92538D01*
X161583Y92125D01*
X161660Y91712D01*
X161890Y91453D01*
X162158Y91298D01*
X163117D01*
G01X162158D02*
X161583Y89800D01*
G01X160093Y90420D02*
X159863Y90058D01*
X159557Y89852D01*
X159212Y89800D01*
X158905Y89852D01*
X158598Y90110D01*
X158407Y90420D01*
X158368Y90730D01*
X158445Y91092D01*
X158713Y91350D01*
X158982Y91453D01*
X159327D01*
G01X158982D02*
X158752Y91608D01*
X158560Y91867D01*
X158483Y92177D01*
X158560Y92487D01*
X158752Y92745D01*
X159097Y92900D01*
X159442Y92848D01*
X159787Y92642D01*
G54D11*
G01X19000Y71500D02*
X33500D01*
Y63500D01*
X19000D01*
Y71500D01*
G01Y59000D02*
X33500D01*
Y51000D01*
X19000D01*
Y59000D01*
G01X18100Y94200D02*
X32600D01*
Y86200D01*
X18100D01*
Y94200D01*
G01X48100Y171700D02*
X62600D01*
Y163700D01*
X48100D01*
Y171700D01*
G01Y161700D02*
X62600D01*
Y153700D01*
X48100D01*
Y161700D01*
G01Y151700D02*
X62600D01*
Y143700D01*
X48100D01*
Y151700D01*
G01Y191700D02*
X62600D01*
Y183700D01*
X48100D01*
Y191700D01*
G01Y181700D02*
X62600D01*
Y173700D01*
X48100D01*
Y181700D01*
G01Y201700D02*
X62600D01*
Y193700D01*
X48100D01*
Y201700D01*
G01Y221700D02*
X62600D01*
Y213700D01*
X48100D01*
Y221700D01*
G01Y211700D02*
X62600D01*
Y203700D01*
X48100D01*
Y211700D01*
G01X38100Y241700D02*
X52600D01*
Y233700D01*
X38100D01*
Y241700D01*
G01X72600Y31200D02*
X58100D01*
Y39200D01*
X72600D01*
Y31200D01*
G01X68000Y67500D02*
Y53000D01*
X60000D01*
Y67500D01*
X68000D01*
G01X60100Y71700D02*
Y86200D01*
X68100D01*
Y71700D01*
X60100D01*
G01X58100Y136700D02*
X72600D01*
Y128700D01*
X58100D01*
Y136700D01*
G01X90700Y222300D02*
X105200D01*
Y214300D01*
X90700D01*
Y222300D01*
G01X128100Y51200D02*
Y36700D01*
X120100D01*
Y51200D01*
X128100D01*
G01X150100Y58700D02*
X135600D01*
Y66700D01*
X150100D01*
Y58700D01*
G01X136500Y85700D02*
X151000D01*
Y77700D01*
X136500D01*
Y85700D01*
G01X141500Y54000D02*
X156000D01*
Y46000D01*
X141500D01*
Y54000D01*
G01X161000Y59000D02*
Y73500D01*
X169000D01*
Y59000D01*
X161000D01*
G01X167600Y93700D02*
X153100D01*
Y101700D01*
X167600D01*
Y93700D01*
G01X153100Y89200D02*
X167600D01*
Y81200D01*
X153100D01*
Y89200D01*
M02*
