G04 ================== begin FILE IDENTIFICATION RECORD ==================*
G04 Layout Name:  E:/cegep/cours/1Hiver_2014/Projet/pcb/board6DFfils7Fini.brd*
G04 Film Name:    soldermask_bottom*
G04 File Format:  Gerber RS274X*
G04 File Origin:  Cadence Allegro 16.6-S021*
G04 Origin Date:  Wed Apr 02 17:29:18 2014*
G04 *
G04 Layer:  VIA CLASS/SOLDERMASK_BOTTOM*
G04 Layer:  PIN/SOLDERMASK_BOTTOM*
G04 Layer:  DRC ERROR CLASS/SOLDERMASK_BOTTOM*
G04 *
G04 Offset:    (0.00 0.00)*
G04 Mirror:    No*
G04 Mode:      Positive*
G04 Rotation:  0*
G04 FullContactRelief:  No*
G04 UndefLineWidth:     10.00*
G04 ================== end FILE IDENTIFICATION RECORD ====================*
%FSLAX25Y25*MOIN*%
%IR0*IPPOS*OFA0.00000B0.00000*MIA0B0*SFA1.00000B1.00000*%
%ADD14R,.029X.12*%
%ADD13C,.03*%
%ADD21C,.06*%
%ADD16C,.07*%
%ADD11C,.075*%
%ADD15R,.08X.08*%
%ADD17R,.075X.075*%
%ADD22R,.023X.06*%
%ADD20R,.06X.023*%
%ADD10C,.12*%
%ADD19R,.068X.055*%
%ADD12R,.055X.068*%
%ADD18R,.0315X.05906*%
%LPD*%
G75*
G54D10*
X22600Y5200D03*
X62600D03*
G54D20*
X77000Y79500D03*
Y76300D03*
Y73100D03*
Y69900D03*
Y66700D03*
Y98700D03*
Y95500D03*
Y92300D03*
Y89100D03*
Y85900D03*
Y82700D03*
X126200Y66700D03*
Y69900D03*
Y73100D03*
Y76300D03*
Y79500D03*
Y85900D03*
Y89100D03*
Y92300D03*
Y95500D03*
Y98700D03*
Y82700D03*
G54D11*
X9100Y15200D03*
Y5200D03*
Y25200D03*
X52600D03*
X39100Y147700D03*
Y157700D03*
Y167700D03*
Y177700D03*
Y187700D03*
Y197700D03*
Y207700D03*
X69100Y167700D03*
Y157700D03*
Y147700D03*
Y197700D03*
Y187700D03*
Y177700D03*
Y217700D03*
Y207700D03*
X76600Y237700D03*
X109100Y12700D03*
X106600Y237700D03*
X96600D03*
X86600D03*
X116600D03*
X156600Y12700D03*
G54D12*
X22500Y67500D03*
Y55000D03*
X21600Y90200D03*
X30000Y67500D03*
Y55000D03*
X29100Y90200D03*
X51600Y167700D03*
Y157700D03*
Y147700D03*
Y187700D03*
Y177700D03*
Y197700D03*
Y217700D03*
Y207700D03*
X49100Y237700D03*
X41600D03*
X61600Y35200D03*
X69100D03*
Y132700D03*
X61600D03*
X59100Y167700D03*
Y157700D03*
Y147700D03*
Y187700D03*
Y177700D03*
Y197700D03*
Y217700D03*
Y207700D03*
X101700Y218300D03*
X94200D03*
X139100Y62700D03*
X140000Y81700D03*
X152500Y50000D03*
X145000D03*
X146600Y62700D03*
X147500Y81700D03*
X156600Y97700D03*
X164100D03*
Y85200D03*
X156600D03*
G54D21*
X80800Y147100D03*
Y155100D03*
Y162900D03*
Y170900D03*
Y178700D03*
Y186700D03*
Y194500D03*
Y202500D03*
Y210300D03*
Y218300D03*
X167400Y170900D03*
Y162900D03*
Y155100D03*
Y147100D03*
Y202500D03*
Y194500D03*
Y186700D03*
Y178700D03*
Y218300D03*
Y210300D03*
G54D22*
X85600Y58100D03*
X88800D03*
X92000D03*
X95200D03*
X98400D03*
X101600D03*
X104800D03*
X108000D03*
Y107300D03*
X104800D03*
X101600D03*
X98400D03*
X95200D03*
X92000D03*
X88800D03*
X85600D03*
X111200Y58100D03*
X114400D03*
X117600D03*
Y107300D03*
X114400D03*
X111200D03*
G54D13*
X14300Y55000D03*
X26200Y61200D03*
X28300Y81700D03*
X21700Y82700D03*
X71550Y50250D03*
X64350Y43150D03*
X54400Y75200D03*
X54500Y55500D03*
X70700Y70600D03*
X76800Y112000D03*
X89200Y31900D03*
X104400Y36400D03*
X109500Y43900D03*
X104400Y47700D03*
Y44000D03*
X104300Y40200D03*
X85600Y51500D03*
X104800Y98100D03*
X108000Y87500D03*
X111200D03*
X101600Y101400D03*
X95200Y115200D03*
X98400Y115000D03*
X101600D03*
X104800D03*
X108000D03*
X111200Y155100D03*
X83600Y225000D03*
X116300Y40200D03*
X138600Y50000D03*
X140900Y75000D03*
X124100Y53800D03*
X126100Y109900D03*
X133900Y81700D03*
X122800Y113400D03*
X138400Y131300D03*
X134300Y202500D03*
X160250Y78250D03*
X152600Y56700D03*
X155400Y71200D03*
X150200Y68500D03*
X150100Y71500D03*
X149900Y75400D03*
X163700Y105400D03*
X144900Y137700D03*
X141700Y134500D03*
X148200Y141100D03*
G54D14*
X46600Y55200D03*
Y90200D03*
G54D15*
X42600Y25200D03*
G54D16*
X46600Y37700D03*
X36600D03*
X46600Y107700D03*
X36600D03*
X26600D03*
X66600D03*
X56600D03*
G54D17*
X26600Y37700D03*
X39100Y217700D03*
X66600Y237700D03*
X89100Y12700D03*
X136600D03*
G54D18*
X76600Y45200D03*
Y54649D03*
G54D19*
X64000Y56500D03*
Y64000D03*
X64100Y82700D03*
Y75200D03*
X124100Y40200D03*
Y47700D03*
X165000Y70000D03*
Y62500D03*
M02*
