G04 ================== begin FILE IDENTIFICATION RECORD ==================*
G04 Layout Name:  E:/cegep/cours/1Hiver_2014/Projet/pcb/board6DFfils7Fini.brd*
G04 Film Name:    TOP*
G04 File Format:  Gerber RS274X*
G04 File Origin:  Cadence Allegro 16.6-S021*
G04 Origin Date:  Wed Apr 02 17:29:18 2014*
G04 *
G04 Layer:  ETCH/TOP*
G04 Layer:  PIN/TOP*
G04 Layer:  VIA CLASS/TOP*
G04 *
G04 Offset:    (0.00 0.00)*
G04 Mirror:    No*
G04 Mode:      Positive*
G04 Rotation:  0*
G04 FullContactRelief:  No*
G04 UndefLineWidth:     10.00*
G04 ================== end FILE IDENTIFICATION RECORD ====================*
%FSLAX25Y25*MOIN*%
%IR0*IPPOS*OFA0.00000B0.00000*MIA0B0*SFA1.00000B1.00000*%
%ADD12C,.024*%
%ADD11C,.06*%
%ADD16C,.07*%
%ADD10C,.09*%
%ADD14C,.055*%
%ADD15R,.06X.06*%
%ADD17R,.07X.07*%
%ADD20R,.08268X.22835*%
%ADD19R,.063X.05*%
%ADD21R,.05X.063*%
%ADD13C,.135*%
%ADD18R,.04134X.02362*%
%ADD22C,.02*%
%ADD23C,.025*%
%ADD25R,.06004X.07304*%
%ADD24R,.07304X.06004*%
G75*
%LPD*%
G75*
G36*
G01X76217Y12700D02*
X73152Y15766D01*
Y45717D01*
X73802Y46367D01*
Y50250D01*
G03X69298I-2252J0D01*
G01Y48233D01*
X68943Y47877D01*
G02X68602Y48018I-141J141D01*
G01Y65671D01*
X72115Y69185D01*
G03X69285Y72015I-1415J1415D01*
G01X64598Y67329D01*
Y46229D01*
X62935Y44565D01*
G03X65765Y41735I1415J-1415D01*
G01X67966Y43935D01*
G02X68648Y43652I282J-283D01*
G01Y16001D01*
G02X67966Y15718I-400J0D01*
G01X67233Y16452D01*
X18100D01*
Y20152D01*
X18868D01*
X19426Y20710D01*
X24348Y25633D01*
Y27264D01*
X28852Y31767D01*
Y34198D01*
X30102D01*
Y41202D01*
X23098D01*
Y39952D01*
X21164D01*
X18783Y42333D01*
G03X18500Y42450I-283J-283D01*
G02X18100Y42850I0J400D01*
G01Y72948D01*
X54400D01*
G03Y77452I0J2252D01*
G01X18100D01*
Y91700D01*
X49769D01*
X52271Y89198D01*
X103471D01*
X106585Y86085D01*
G03X109334Y86007I1416J1415D01*
G02X109866I266J-298D01*
G03X110904Y85520I1334J1493D01*
G02X111128Y84842I-59J-395D01*
G01X108405Y82119D01*
X102318D01*
Y61465D01*
X98876Y58022D01*
X96236D01*
Y82119D01*
X86964D01*
Y72452D01*
X81747D01*
X77928Y68633D01*
Y32628D01*
X86469Y24088D01*
X91872D01*
X101352Y33567D01*
Y38538D01*
X101668D01*
Y42277D01*
X101669D01*
Y49383D01*
X96531D01*
Y42277D01*
X96532D01*
Y38538D01*
X96848D01*
Y35433D01*
X90006Y28590D01*
X88335D01*
X82432Y34494D01*
Y66767D01*
X83613Y67948D01*
X86964D01*
Y58281D01*
X93681D01*
G02X93964Y57598I0J-400D01*
G01X88325Y51959D01*
X87192Y53092D01*
G03X84008Y49908I-1592J-1592D01*
G01X85073Y48843D01*
G02X84932Y48502I-141J-141D01*
G01X84848D01*
Y42498D01*
X92152D01*
Y48505D01*
G02X91918Y49184I49J397D01*
G01X96254Y53520D01*
X100742D01*
X105503Y58281D01*
X111590D01*
Y78935D01*
X117462Y84808D01*
X121208D01*
X126848Y79167D01*
Y78852D01*
X126098D01*
Y71548D01*
X132102D01*
Y75667D01*
X133215Y76781D01*
G02X133898Y76498I283J-283D01*
G01Y70885D01*
X139514Y65268D01*
X145000D01*
G03X146496Y65838I-1J2252D01*
G01X147568D01*
Y69577D01*
X147569D01*
Y76683D01*
X146083D01*
G03X145000Y77002I-1084J-1683D01*
G01X140900D01*
G03X140584Y76976I6J-2002D01*
G02X140238Y77654I-63J395D01*
G01X141352Y78767D01*
Y85781D01*
X143736D01*
Y91700D01*
X149818D01*
Y85781D01*
X159090D01*
Y89761D01*
G02X159772Y90044I400J0D01*
G01X168900Y80916D01*
Y41308D01*
G02X168139Y41135I-400J0D01*
G03Y34865I-6539J-3135D01*
G02X168900Y34692I361J-173D01*
G01Y12700D01*
X160607D01*
X160597Y12890D01*
G03X155953Y16649I-3997J-190D01*
G01X155851Y16633D01*
X153452Y19033D01*
Y40124D01*
X153252Y40324D01*
Y42667D01*
X154752Y44167D01*
Y46348D01*
X155502D01*
Y53652D01*
X154752D01*
Y55667D01*
X157882Y58797D01*
Y65838D01*
X158198D01*
Y69202D01*
X157126D01*
G03X154134I-1496J-1682D01*
G01X153062D01*
Y65838D01*
X153378D01*
Y60663D01*
X150248Y57533D01*
Y53652D01*
X149498D01*
Y46348D01*
X150248D01*
Y46033D01*
X148748Y44533D01*
Y42452D01*
X127752D01*
Y43202D01*
X120448D01*
Y42452D01*
X114500D01*
X114480Y42472D01*
X109730D01*
G03X108234Y41902I1J-2252D01*
G01X107162D01*
Y38538D01*
X108234D01*
G03X109730Y37968I1497J1682D01*
G01X112614D01*
X112634Y37948D01*
X120448D01*
Y37198D01*
X127752D01*
Y37948D01*
X148948D01*
Y17167D01*
X152667Y13449D01*
X152651Y13347D01*
G03X152603Y12890I3949J-646D01*
G01X152593Y12700D01*
X140602D01*
Y16702D01*
X132598D01*
Y12700D01*
X113107D01*
X113097Y12890D01*
G03X105103I-3997J-190D01*
G01X105093Y12700D01*
X93102D01*
Y16702D01*
X85098D01*
Y12700D01*
X76217D01*
G37*
%LPC*%
G75*
G36*
G01X156067Y77252D02*
X158658Y79842D01*
G02X161842Y76658I1592J-1592D01*
G01X157933Y72748D01*
X155630D01*
G02X154134Y73318I1J2252D01*
G01X153062D01*
Y76682D01*
X154134D01*
G02X155630Y77252I1497J-1682D01*
G01X156067D01*
G37*
G36*
G01X121783Y59048D02*
X115286Y52552D01*
Y49186D01*
X112298Y46198D01*
Y46018D01*
X112118D01*
X111549Y45448D01*
X109730D01*
G02X108234Y46018I1J2252D01*
G01X107162D01*
Y49382D01*
X108234D01*
G02X109608Y49948I1496J-1682D01*
G01X109684Y49952D01*
X110784Y51052D01*
Y54418D01*
X118598Y62233D01*
Y66352D01*
X119348D01*
Y71548D01*
X118598D01*
Y78852D01*
X124602D01*
Y71548D01*
X123852D01*
Y66352D01*
X124602D01*
Y59048D01*
X121783D01*
G37*
G36*
G01X46102Y21698D02*
X39098D01*
Y25871D01*
X34598Y30371D01*
Y34826D01*
G02X38602I2002J2874D01*
G01Y32029D01*
X41929Y28702D01*
X45302D01*
G03X45585Y29384I0J400D01*
G01X44598Y30371D01*
Y34826D01*
G02X48602I2002J2874D01*
G01Y32029D01*
X52202Y28429D01*
X52295Y28438D01*
G02X49362Y25505I305J-3238D01*
G01X49371Y25598D01*
X46784Y28185D01*
G03X46102Y27902I-282J-283D01*
G01Y21698D01*
G37*
G54D25*
X129100Y62700D03*
X145000Y50000D03*
G54D24*
X88500Y38000D03*
X124100Y47700D03*
%LPD*%
G75*
G54D10*
X22600Y5200D03*
X62600D03*
G54D20*
X106954Y70200D03*
X91600D03*
X139100Y97700D03*
X154454D03*
G54D11*
X9100Y15200D03*
Y5200D03*
Y25200D03*
X46600Y37700D03*
X36600D03*
X46600Y107700D03*
X36600D03*
X26600D03*
X39100Y147700D03*
Y157700D03*
Y167700D03*
Y177700D03*
Y187700D03*
Y197700D03*
Y207700D03*
X66600Y107700D03*
X56600D03*
X69100Y167700D03*
Y157700D03*
Y147700D03*
Y197700D03*
Y187700D03*
Y177700D03*
Y217700D03*
Y207700D03*
X76600Y237700D03*
X106600D03*
X96600D03*
X86600D03*
X116600D03*
G54D21*
X129100Y75200D03*
X121600D03*
Y62700D03*
X129100D03*
X152500Y50000D03*
X145000D03*
G54D12*
X14300Y55000D03*
X26200Y61200D03*
X28300Y81700D03*
X21700Y82700D03*
X71550Y50250D03*
X64350Y43150D03*
X54400Y75200D03*
X54500Y55500D03*
X70700Y70600D03*
X76800Y112000D03*
X89200Y31900D03*
X104400Y36400D03*
X109500Y43900D03*
X104400Y47700D03*
Y44000D03*
X104300Y40200D03*
X85600Y51500D03*
X104800Y98100D03*
X108000Y87500D03*
X111200D03*
X101600Y101400D03*
X95200Y115200D03*
X98400Y115000D03*
X101600D03*
X104800D03*
X108000D03*
X111200Y155100D03*
X83600Y225000D03*
X116300Y40200D03*
X138600Y50000D03*
X140900Y75000D03*
X124100Y53800D03*
X126100Y109900D03*
X133900Y81700D03*
X122800Y113400D03*
X138400Y131300D03*
X134300Y202500D03*
X160250Y78250D03*
X152600Y56700D03*
X155400Y71200D03*
X150200Y68500D03*
X150100Y71500D03*
X149900Y75400D03*
X163700Y105400D03*
X144900Y137700D03*
X141700Y134500D03*
X148200Y141100D03*
G54D22*
G01X46600Y37700D02*
Y31200D01*
X52600Y25200D01*
G01X36600Y37700D02*
Y31200D01*
X42600Y25200D01*
G01X108000Y87500D02*
X104300Y91200D01*
X53100D01*
X36600Y107700D01*
G01X46600D02*
X59400Y94900D01*
X109500D01*
X111200Y93200D01*
Y87500D01*
G01X98400Y115000D02*
Y116526D01*
X96526Y118400D01*
X57845D01*
X39100Y137145D01*
Y147700D01*
G01Y157700D02*
X44300Y152500D01*
Y136471D01*
X59171Y121600D01*
X99600D01*
X101600Y119600D01*
Y115000D01*
G01X104800D02*
Y122900D01*
X102900Y124800D01*
X60497D01*
X47500Y137797D01*
Y159300D01*
X39100Y167700D01*
G01Y177700D02*
X48559D01*
X50700Y175559D01*
Y139123D01*
X61823Y128000D01*
X106000D01*
X108000Y126000D01*
Y115000D01*
G01X138400Y131300D02*
X63049D01*
X53900Y140449D01*
Y185300D01*
X51500Y187700D01*
X39100D01*
G01X141700Y134500D02*
X64375D01*
X57100Y141775D01*
Y195700D01*
X55100Y197700D01*
X39100D01*
G01X144900Y137700D02*
X65701D01*
X60300Y143101D01*
Y205700D01*
X58300Y207700D01*
X39100D01*
G01X148200Y141100D02*
X145500D01*
X145300Y140900D01*
X68545D01*
X63900Y145545D01*
Y215700D01*
X61900Y217700D01*
X39100D01*
G01X64350Y43150D02*
X66600Y45400D01*
Y66500D01*
X70700Y70600D01*
G01X76800Y112000D02*
X72500Y107700D01*
X66600D01*
G01X95200Y115200D02*
X64100D01*
X56600Y107700D01*
G01X80800Y155100D02*
X111200D01*
G01X80800Y202500D02*
X134300D01*
G01X126100Y109900D02*
Y106500D01*
X117700Y98100D01*
X104800D01*
G01X122800Y113400D02*
Y107800D01*
X116400Y101400D01*
X101600D01*
G01X145000Y75000D02*
X140900D01*
G54D13*
X12300Y126500D03*
X12400Y239400D03*
X161600Y38000D03*
X165800Y239300D03*
G54D23*
G01X9100Y15200D02*
X26600Y32700D01*
Y37700D01*
G01X155300Y97700D02*
X171652Y81348D01*
Y5952D01*
X166798Y1098D01*
X79402D01*
X66300Y14200D01*
X18100D01*
X9100Y5200D01*
G01X14300Y55000D02*
Y42300D01*
X18900Y37700D01*
X26600D01*
G01X54400Y75200D02*
X11700D01*
X9200Y72700D01*
Y25300D01*
X9100Y25200D01*
G01X71550Y50250D02*
Y47300D01*
X70900Y46650D01*
Y14833D01*
X80935Y4798D01*
X148698D01*
X156600Y12700D01*
G01X91600Y70200D02*
X82680D01*
X80180Y67700D01*
Y33561D01*
X87402Y26339D01*
X90939D01*
X99100Y34500D01*
Y40220D01*
G01X69100Y147700D02*
X73850D01*
X74450Y147100D01*
X80800D01*
G01Y218300D02*
X90800Y208300D01*
X152400D01*
X154900Y205800D01*
Y120500D01*
X152400Y118000D01*
X133100D01*
X130600Y115500D01*
Y101130D01*
X116529Y87059D01*
G01X83600Y225000D02*
X76400D01*
X69100Y217700D01*
G01X89100Y12700D02*
Y16902D01*
G01X84898Y12700D02*
X89100D01*
G01D02*
X93302D01*
G01X109730Y47700D02*
X110616D01*
X113035Y50119D01*
Y53485D01*
X121600Y62050D01*
Y62700D01*
G01X116300Y40200D02*
X113567D01*
X113547Y40220D01*
X109730D01*
G01X88213Y48887D02*
X88437D01*
X95321Y55771D01*
X99809D01*
X106954Y62916D01*
Y70200D01*
G01X88500Y45500D02*
Y48600D01*
X88213Y48887D01*
G01D02*
X85600Y51500D01*
G01X88500Y38000D02*
X93900D01*
G01X86600D02*
X88500D01*
G01X96331Y43960D02*
X99100D01*
G01D02*
X101869D01*
G01X116529Y87059D02*
X106954Y77484D01*
Y70200D01*
G01X86600Y237700D02*
Y230950D01*
X83600Y227950D01*
Y225000D01*
G01X136600Y12700D02*
Y16902D01*
G01X132398Y12700D02*
X136600D01*
G01D02*
X140802D01*
G01X124100Y40200D02*
X116300D01*
G01X150191D02*
X124100D01*
G01X138600Y50000D02*
X145000D01*
G01X124100Y53800D02*
Y47700D01*
G01X120248D02*
X124100D01*
G01D02*
X127952D01*
G01X121600Y75200D02*
Y62700D01*
G01X145000Y67520D02*
X140447D01*
X136149Y71818D01*
Y76749D01*
X139100Y79700D01*
Y97700D01*
G01X129100Y75200D02*
Y75850D01*
G01D02*
Y80100D01*
X122141Y87059D01*
X116529D01*
G01X129100Y75850D02*
X133900Y80650D01*
Y81700D01*
G01X129100Y58848D02*
Y62700D01*
G01D02*
Y66552D01*
G01Y62700D02*
X132302D01*
G01X156600Y12700D02*
X151200Y18100D01*
Y39191D01*
X150191Y40200D01*
G01X152500Y50000D02*
Y56600D01*
X152600Y56700D01*
G01X152500Y50000D02*
Y45100D01*
X151000Y43600D01*
Y41009D01*
X150191Y40200D01*
G01X145000Y46148D02*
Y50000D01*
G01D02*
Y53852D01*
G01X160250Y78250D02*
X157000Y75000D01*
X155630D01*
G01Y67520D02*
Y59730D01*
X152600Y56700D01*
G01X150100Y71500D02*
X149027D01*
X148787Y71260D01*
G01D02*
X145000D01*
G01X163700Y105400D02*
X156000Y97700D01*
X155300D01*
G01D02*
X154454D01*
G54D14*
X52600Y25200D03*
X80800Y147100D03*
Y155100D03*
Y162900D03*
Y170900D03*
Y178700D03*
Y186700D03*
Y194500D03*
Y202500D03*
Y210300D03*
Y218300D03*
X167400Y170900D03*
Y162900D03*
Y155100D03*
Y147100D03*
Y202500D03*
Y194500D03*
Y186700D03*
Y178700D03*
Y218300D03*
Y210300D03*
G54D15*
X42600Y25200D03*
X26600Y37700D03*
X39100Y217700D03*
X66600Y237700D03*
G54D16*
X109100Y12700D03*
X156600D03*
G54D17*
X89100D03*
X136600D03*
G54D18*
X109730Y47700D03*
Y40220D03*
X99100D03*
Y43960D03*
Y47700D03*
X155630Y75000D03*
Y67520D03*
X145000D03*
Y71260D03*
Y75000D03*
G54D19*
X88500Y45500D03*
Y38000D03*
X124100Y40200D03*
Y47700D03*
M02*
