G04 ================== begin FILE IDENTIFICATION RECORD ==================*
G04 Layout Name:  C:/Orcad projets en court/Projet_2_2012/SPB_Data_TGE/Route-1.brd*
G04 Film Name:    TOP*
G04 File Format:  Gerber RS274X*
G04 File Origin:  Cadence Allegro 16.5-S017*
G04 Origin Date:  Wed Apr 11 14:17:43 2012*
G04 *
G04 Layer:  ETCH/TOP*
G04 Layer:  PIN/TOP*
G04 Layer:  VIA CLASS/TOP*
G04 *
G04 Offset:    (0.00 0.00)*
G04 Mirror:    No*
G04 Mode:      Positive*
G04 Rotation:  0*
G04 FullContactRelief:  No*
G04 UndefLineWidth:     10.00*
G04 ================== end FILE IDENTIFICATION RECORD ====================*
%FSLAX35Y35*MOIN*%
%IR0*IPPOS*OFA0.00000B0.00000*MIA0B0*SFA1.00000B1.00000*%
%ADD21R,.023X.11*%
%ADD19C,.024*%
%ADD11C,.06*%
%ADD12R,.06X.06*%
%ADD18R,.07X.07*%
%ADD22R,.017X.02*%
%ADD20R,.05X.025*%
%ADD14R,.063X.05*%
%ADD16R,.019X.05*%
%ADD15R,.05X.063*%
%ADD17R,.05X.019*%
%ADD13R,.07X.063*%
%ADD10C,.135*%
%ADD23C,.145*%
%ADD24C,.012*%
%ADD25C,.025*%
%ADD26C,.017*%
%ADD27C,.019*%
G75*
%LPD*%
G75*
G54D10*
X10000Y10000D03*
Y190000D03*
X290000Y10000D03*
Y190000D03*
G54D20*
X85250Y142500D03*
Y137500D03*
Y132500D03*
Y127500D03*
X104750Y137500D03*
Y142500D03*
Y132500D03*
Y127500D03*
G54D11*
X17500Y62500D03*
Y72500D03*
Y82500D03*
Y92500D03*
Y102500D03*
Y112500D03*
X27500Y62500D03*
Y72500D03*
Y82500D03*
Y92500D03*
Y102500D03*
Y112500D03*
Y122500D03*
X40000Y172500D03*
X70000Y17500D03*
X60000D03*
X70000Y27500D03*
X60000D03*
X50000D03*
X90000Y17500D03*
X80000D03*
X90000Y27500D03*
X80000D03*
X110000Y17500D03*
X100000D03*
X110000Y27500D03*
X100000D03*
X172500Y17500D03*
Y27500D03*
X162500D03*
X152500Y72500D03*
Y82500D03*
Y92500D03*
Y102500D03*
Y112500D03*
Y122500D03*
X202500Y17500D03*
X192500D03*
X182500D03*
X202500Y27500D03*
X192500D03*
X182500D03*
Y72500D03*
Y82500D03*
Y92500D03*
Y102500D03*
Y112500D03*
Y122500D03*
Y132500D03*
X222500Y17500D03*
X212500D03*
X222500Y27500D03*
X212500D03*
X247500Y93300D03*
Y114900D03*
Y104100D03*
Y125700D03*
X258300Y87900D03*
Y120300D03*
Y109500D03*
Y98700D03*
G54D12*
X17500Y122500D03*
X50000Y17500D03*
X162500D03*
X152500Y132500D03*
X247500Y82500D03*
G54D21*
X130000Y65000D03*
Y100000D03*
G54D13*
X15000Y166000D03*
Y155000D03*
G54D22*
X196300Y66500D03*
X200000Y73500D03*
X196300Y99000D03*
X200000Y106000D03*
X196300Y131500D03*
X200000Y138500D03*
X203800Y66500D03*
Y99000D03*
Y131500D03*
G54D23*
X252500Y55000D03*
Y152500D03*
G54D14*
X42500Y82500D03*
Y75000D03*
X112500Y80000D03*
Y87500D03*
X115000Y137500D03*
Y130000D03*
G54D24*
G01X71100Y107100D02*
Y103500D01*
X70100Y102500D01*
X59200D01*
X54200Y107500D01*
X15900D01*
X12500Y110900D01*
Y117500D01*
X17500Y122500D01*
G01Y92500D02*
X20400Y95400D01*
X24601D01*
X25801Y96600D01*
X42751D01*
X47251Y92100D01*
X52900D01*
G01Y88900D02*
X43851D01*
Y92500D01*
X27500D01*
G01X64700Y107100D02*
Y110700D01*
X57900Y117500D01*
X23305D01*
X21205Y115400D01*
X20400D01*
X17500Y112500D01*
G01X61500Y107100D02*
Y108650D01*
X59772Y110378D01*
X59017D01*
X56895Y112500D01*
X27500D01*
G01X52900Y98500D02*
X49300D01*
X49200Y98400D01*
X25801D01*
X24601Y99600D01*
X20400D01*
X17500Y102500D01*
G01X52900Y95300D02*
X56500D01*
Y102500D01*
X27500D01*
G01X67900Y107100D02*
Y122500D01*
X27500D01*
G01X15000Y155000D02*
Y145000D01*
X32500D01*
G01X60000Y17500D02*
X55900Y13400D01*
X46544D01*
X46222Y13722D01*
X45578D01*
X42500Y16800D01*
Y52001D01*
X44525Y54026D01*
X46550D01*
Y66500D01*
X52900D01*
G01X50000Y17500D02*
X45900Y21600D01*
Y38326D01*
X56500Y48926D01*
Y69700D01*
X52900D01*
G01Y72900D02*
X56500D01*
X58200Y71200D01*
Y46126D01*
X54200Y42126D01*
X52105D01*
X50000Y40021D01*
Y27500D01*
G01X61500Y57900D02*
Y36700D01*
X60000D01*
Y27500D01*
G01X64700Y57900D02*
Y22800D01*
X70000Y17500D01*
G01X95000Y72500D02*
X72500D01*
Y79300D01*
X52900D01*
G01X74300Y57900D02*
Y61500D01*
X75300Y62500D01*
X96500D01*
X97500Y61500D01*
Y57000D01*
X99550Y54950D01*
X110100D01*
X114100Y50950D01*
Y13400D01*
X85800D01*
Y21700D01*
X80000Y27500D01*
G01X67900Y57900D02*
Y35000D01*
X70000D01*
Y27500D01*
G01X71100Y57900D02*
Y38400D01*
X75800D01*
Y21700D01*
X80000Y17500D01*
G01X108350Y126400D02*
Y125794D01*
X103456Y120900D01*
X93395D01*
X87100Y114605D01*
Y107100D01*
G01X104750Y132500D02*
X110050D01*
X111028Y133478D01*
X111272D01*
X111394Y133600D01*
X118606D01*
X119250Y132956D01*
Y124000D01*
X111050Y115800D01*
X94700D01*
X90700Y111800D01*
X90300D01*
Y107100D01*
G01X83900D02*
Y115200D01*
X85000D01*
Y117500D01*
G01X80700Y107100D02*
Y103500D01*
X81700Y102500D01*
X106750D01*
X110850Y106600D01*
X178400D01*
X182500Y102500D01*
G01X160000Y110000D02*
Y113500D01*
X156000Y117500D01*
X135500D01*
X135000Y117000D01*
Y116500D01*
X131000Y112500D01*
X97350D01*
X93500Y108650D01*
Y107100D01*
G01X102100Y66500D02*
Y57500D01*
X117500D01*
Y4100D01*
X192500D01*
Y17500D01*
G01X102100Y85700D02*
X96800D01*
Y100550D01*
X130000D01*
Y100000D01*
G01X102100Y82500D02*
X107400D01*
Y83600D01*
X130000D01*
Y65000D01*
G01X102100Y76100D02*
X125000D01*
Y17500D01*
X162500D01*
G01X102100Y72900D02*
X122500D01*
Y7500D01*
X172500D01*
Y17500D01*
G01X182500D02*
Y7500D01*
X174200D01*
Y5800D01*
X120800D01*
Y69700D01*
X102100D01*
G01Y92100D02*
X105700D01*
Y92500D01*
X120000D01*
Y87500D01*
X140800D01*
Y45800D01*
X162500D01*
Y27500D01*
G01X102100Y98500D02*
X125000D01*
Y92500D01*
X145000D01*
Y50000D01*
X182500D01*
Y27500D01*
G01X102100Y95300D02*
X122500D01*
Y90000D01*
X142500D01*
Y47500D01*
X172500D01*
Y27500D01*
G01X115000Y130000D02*
Y126400D01*
X108350D01*
G01D02*
Y127500D01*
X104750D01*
G01X192500Y27500D02*
Y55000D01*
X170000D01*
G01X200000Y138500D02*
X191700D01*
Y98300D01*
X158300D01*
X152500Y92500D01*
G01X182500D02*
X165000D01*
G01Y117500D02*
Y112500D01*
X182500D01*
G01X200000Y106000D02*
X196975D01*
X193950Y102975D01*
Y62550D01*
X197950Y58550D01*
X200776D01*
X201676Y57650D01*
X225624D01*
X226524Y58550D01*
X236000D01*
X240000Y62550D01*
Y93300D01*
G01X222500Y77500D02*
Y78150D01*
X219222Y81428D01*
X218572D01*
X217500Y82500D01*
X208850D01*
X200000Y73650D01*
Y73500D01*
G01X211400Y67500D02*
X216400Y72500D01*
X224706D01*
X226100Y73894D01*
Y91106D01*
X224706Y92500D01*
X220294D01*
X218900Y93894D01*
Y96400D01*
X218600Y96700D01*
Y101106D01*
X217956Y101750D01*
X216500D01*
X215000Y103250D01*
Y107500D01*
G01X211400Y67500D02*
X210400Y66500D01*
X203800D01*
G01Y99000D02*
Y87500D01*
X215000D01*
G01Y67500D02*
X211400D01*
G01X240000Y93300D02*
X235800Y97500D01*
X222500D01*
G01X215000Y117500D02*
X218600D01*
Y137500D01*
X215000D01*
G01X247500Y114900D02*
X226100D01*
G01D02*
Y117500D01*
X222500D01*
G01X226100Y114900D02*
X223700Y112500D01*
X212794D01*
X211400Y111106D01*
Y101495D01*
X215000Y97895D01*
Y97500D01*
G01X222500Y107500D02*
X243400D01*
Y104100D01*
X247500D01*
G01X226100Y137500D02*
X222500D01*
G01X203800Y131500D02*
Y143450D01*
X226100D01*
Y137500D01*
G01D02*
Y127500D01*
X222500D01*
G01X247500Y93300D02*
X240000D01*
G54D15*
X32500Y145000D03*
X40000D03*
X75000Y47500D03*
X82500D03*
X80000Y117500D03*
X72500D03*
X92500Y152500D03*
X100000D03*
X222500Y67500D03*
X215000D03*
X222500Y87500D03*
X215000D03*
X222500Y77500D03*
X215000D03*
Y117500D03*
X222500D03*
Y97500D03*
X215000D03*
Y107500D03*
X222500D03*
Y137500D03*
X215000D03*
Y127500D03*
X222500D03*
G54D25*
G01X17500Y62500D02*
Y72500D01*
G01X27500Y62500D02*
Y67750D01*
G01D02*
Y72500D01*
G01X42500Y75000D02*
Y67750D01*
X27500D01*
G01X17500Y72500D02*
Y82500D01*
G01D02*
X20859Y85859D01*
X21109D01*
X22500Y87250D01*
X40100D01*
X40600Y86750D01*
X42500D01*
Y82500D01*
G01X44750Y145000D02*
X40000D01*
G01X60000Y172500D02*
X54750Y177750D01*
X15000D01*
Y166000D01*
G01X44750Y145000D02*
Y167750D01*
X40000Y172500D01*
G01X57150Y82500D02*
Y85700D01*
G01X42500Y75000D02*
Y76100D01*
G01X72500Y117500D02*
Y145000D01*
X44750D01*
G01X60000Y172500D02*
X80000Y152500D01*
X81000D01*
G01X90000Y17500D02*
X95250D01*
G01D02*
Y29750D01*
X82400Y42600D01*
X79275D01*
X78250Y43625D01*
Y46750D01*
X77500Y47500D01*
G01X75000D02*
X77500D01*
G01D02*
Y52400D01*
G01X82500Y47500D02*
X100000D01*
Y27500D01*
G01X82500Y47500D02*
X82400D01*
G01X80000Y117500D02*
Y126500D01*
X81000Y127500D01*
G01X77500Y111350D02*
X80000D01*
Y117500D01*
G01X74300Y111350D02*
X72500D01*
Y117500D01*
G01X85250Y137500D02*
X104750D01*
G01X81000Y127500D02*
X85250D01*
G01X81000Y132500D02*
X85250D01*
G01X81000Y142500D02*
X85250D01*
G01X81000Y152500D02*
Y142500D01*
G01D02*
Y137500D01*
G01D02*
X85250D01*
G01X81000Y132500D02*
Y137500D01*
G01Y127500D02*
Y132500D01*
G01X92500Y152500D02*
X81000D01*
G01X100000Y17500D02*
X110000D01*
G01X95250D02*
X100000D01*
G01X110000Y27500D02*
X100000D01*
G01X112500Y80000D02*
Y79300D01*
G01Y87500D02*
X107600D01*
G01D02*
X106350Y88750D01*
Y88900D01*
G01X115000Y142500D02*
X104750D01*
G01X115000Y137500D02*
Y142500D01*
G01D02*
X142500D01*
X152500Y132500D01*
G01X100000Y152500D02*
X105000D01*
X115000Y142500D01*
G01X152500Y122500D02*
X182500D01*
G01Y132500D02*
X152500D01*
G01X227250Y62600D02*
X224650Y60000D01*
X202650D01*
X196300Y66350D01*
Y66500D01*
G01X215000Y77500D02*
X207324D01*
X205600Y75776D01*
Y74100D01*
X202250Y70750D01*
X199300D01*
G01D02*
X196300D01*
G01X210750Y127500D02*
X196300D01*
G01X212500Y17500D02*
X202500D01*
G01X222500D02*
X212500D01*
G01Y27500D02*
X202500D01*
G01X212500D02*
X222500D01*
G01Y67500D02*
X227250Y62750D01*
Y62600D01*
G01X215000Y127500D02*
X210750D01*
G54D16*
X64700Y57900D03*
X61500D03*
Y107100D03*
X64700D03*
X93500Y57900D03*
X90300D03*
X87100D03*
X83900D03*
X80700D03*
X77500D03*
X74300D03*
X71100D03*
X67900D03*
Y107100D03*
X71100D03*
X74300D03*
X77500D03*
X80700D03*
X83900D03*
X87100D03*
X90300D03*
X93500D03*
G54D26*
G01X196300Y70750D02*
Y99000D01*
G01Y127500D02*
Y131500D01*
G54D17*
X52900Y66500D03*
Y85700D03*
Y88900D03*
Y92100D03*
Y69700D03*
Y72900D03*
Y76100D03*
Y79300D03*
Y82500D03*
Y95300D03*
Y98500D03*
X102100Y66500D03*
Y79300D03*
Y76100D03*
Y72900D03*
Y69700D03*
Y92100D03*
Y88900D03*
Y85700D03*
Y82500D03*
Y98500D03*
Y95300D03*
G54D27*
G01X57150Y82500D02*
X80000D01*
X83200Y79300D01*
X102100D01*
G01X52900Y82500D02*
X57150D01*
G01X52900D02*
X42500D01*
G01X57150Y85700D02*
X52900D01*
G01X42500Y76100D02*
X52900D01*
G01X77500Y52400D02*
Y57900D01*
G01X82400Y47500D02*
X80700Y49200D01*
Y57900D01*
G01X77500Y107100D02*
Y111350D01*
G01X74300Y107100D02*
Y111350D01*
G01X112500Y79300D02*
X102100D01*
G01X106350Y88900D02*
X102100D01*
G54D18*
X60000Y172500D03*
G54D19*
X95000Y72500D03*
X85000Y117500D03*
X107600Y87500D03*
X170000Y55000D03*
X165000Y92500D03*
Y117500D03*
X160000Y110000D03*
X199300Y70750D03*
X227250Y62600D03*
X210750Y127500D03*
M02*
