G04 ================== begin FILE IDENTIFICATION RECORD ==================*
G04 Layout Name:  C:/Orcad projets en court/Projet_2_2012/SPB_Data_TGE/Route-1.brd*
G04 Film Name:    BOTTOM*
G04 File Format:  Gerber RS274X*
G04 File Origin:  Cadence Allegro 16.5-S017*
G04 Origin Date:  Wed Apr 11 14:17:43 2012*
G04 *
G04 Layer:  ETCH/BOTTOM*
G04 Layer:  PIN/BOTTOM*
G04 Layer:  VIA CLASS/BOTTOM*
G04 *
G04 Offset:    (0.00 0.00)*
G04 Mirror:    No*
G04 Mode:      Positive*
G04 Rotation:  0*
G04 FullContactRelief:  No*
G04 UndefLineWidth:     10.00*
G04 ================== end FILE IDENTIFICATION RECORD ====================*
%FSLAX35Y35*MOIN*%
%IR0*IPPOS*OFA0.00000B0.00000*MIA0B0*SFA1.00000B1.00000*%
%ADD14C,.024*%
%ADD11C,.06*%
%ADD12R,.06X.06*%
%ADD13R,.07X.07*%
%ADD10C,.135*%
%ADD15C,.145*%
%ADD16C,.012*%
%ADD17C,.025*%
%ADD18C,.01*%
G75*
%LPD*%
G75*
G54D10*
X10000Y10000D03*
Y190000D03*
X290000Y10000D03*
Y190000D03*
G54D11*
X17500Y62500D03*
Y72500D03*
Y82500D03*
Y92500D03*
Y102500D03*
Y112500D03*
X27500Y62500D03*
Y72500D03*
Y82500D03*
Y92500D03*
Y102500D03*
Y112500D03*
Y122500D03*
X40000Y172500D03*
X70000Y17500D03*
X60000D03*
X70000Y27500D03*
X60000D03*
X50000D03*
X90000Y17500D03*
X80000D03*
X90000Y27500D03*
X80000D03*
X110000Y17500D03*
X100000D03*
X110000Y27500D03*
X100000D03*
X172500Y17500D03*
Y27500D03*
X162500D03*
X152500Y72500D03*
Y82500D03*
Y92500D03*
Y102500D03*
Y112500D03*
Y122500D03*
X202500Y17500D03*
X192500D03*
X182500D03*
X202500Y27500D03*
X192500D03*
X182500D03*
Y72500D03*
Y82500D03*
Y92500D03*
Y102500D03*
Y112500D03*
Y122500D03*
Y132500D03*
X222500Y17500D03*
X212500D03*
X222500Y27500D03*
X212500D03*
X247500Y93300D03*
Y114900D03*
Y104100D03*
Y125700D03*
X258300Y87900D03*
Y120300D03*
Y109500D03*
Y98700D03*
G54D12*
X17500Y122500D03*
X50000Y17500D03*
X162500D03*
X152500Y132500D03*
X247500Y82500D03*
G54D13*
X60000Y172500D03*
G54D14*
X95000Y72500D03*
X85000Y117500D03*
X107600Y87500D03*
X170000Y55000D03*
X165000Y92500D03*
Y117500D03*
X160000Y110000D03*
X199300Y70750D03*
X227250Y62600D03*
X210750Y127500D03*
G54D15*
X252500Y55000D03*
Y152500D03*
G54D16*
G01X85000Y117500D02*
X165000D01*
G01Y92500D02*
Y87500D01*
X137500D01*
Y72500D01*
X95000D01*
G01X170000Y55000D02*
Y110000D01*
X160000D01*
G54D17*
G01X17500Y62500D02*
X47750Y32250D01*
X51968D01*
X54750Y29468D01*
Y25250D01*
X57750Y22250D01*
X85000D01*
X86391Y20859D01*
X86641D01*
X90000Y17500D01*
G01X27500Y72500D02*
Y82500D01*
G01X90000Y87500D02*
X40000D01*
G01D02*
X35000Y82500D01*
X27500D01*
G01X40000Y172500D02*
Y87500D01*
G01X152500Y122500D02*
X110000D01*
X60000Y172500D01*
G01X90000Y27500D02*
Y87500D01*
G01X100000Y27500D02*
X90000D01*
G01Y87500D02*
X107600D01*
G01X202500Y17500D02*
X197500Y22500D01*
X115000D01*
X110000Y17500D01*
G01X187250Y32500D02*
X115000D01*
X110000Y27500D01*
G01X187250Y67750D02*
X174750D01*
Y124750D01*
X182500Y132500D01*
G01X187250Y67750D02*
Y32500D01*
G01D02*
X197500D01*
X202500Y27500D01*
G01X199300Y70750D02*
X190250D01*
X187250Y67750D01*
G01X210750Y122500D02*
X182500D01*
G01X227250Y62600D02*
Y22250D01*
X222500Y17500D01*
G01X227250Y120950D02*
Y62600D01*
G01X247500Y125700D02*
X242750Y120950D01*
X227250D01*
G01D02*
X212300D01*
X210750Y122500D01*
G01Y127500D02*
Y122500D01*
G54D18*
G01X271487Y6333D02*
X271380Y6458D01*
X271300Y6667D01*
X271247Y6958D01*
X271300Y7208D01*
X271407Y7375D01*
X271593Y7500D01*
X272313D01*
Y5000D01*
X271433D01*
X271247Y5167D01*
X271140Y5417D01*
X271087Y5708D01*
X271140Y6000D01*
X271300Y6250D01*
X271487Y6333D01*
X272313D01*
G01X269500Y5000D02*
X269713Y5042D01*
X269900Y5208D01*
X270060Y5458D01*
X270167Y5750D01*
X270220Y6083D01*
Y6417D01*
X270167Y6750D01*
X270060Y7042D01*
X269900Y7292D01*
X269713Y7458D01*
X269500Y7500D01*
X269287Y7458D01*
X269100Y7292D01*
X268940Y7042D01*
X268833Y6750D01*
X268780Y6417D01*
Y6083D01*
X268833Y5750D01*
X268940Y5458D01*
X269100Y5208D01*
X269287Y5042D01*
X269500Y5000D01*
G01X267300Y7500D02*
Y5000D01*
G01X267913Y7500D02*
X266687D01*
M02*
