G04 ================== begin FILE IDENTIFICATION RECORD ==================*
G04 Layout Name:  alimentation.brd*
G04 Film Name:    Soldermask_top*
G04 File Format:  Gerber RS274X*
G04 File Origin:  Cadence Allegro 16.5-S022*
G04 Origin Date:  Tue Apr 30 12:43:16 2013*
G04 *
G04 Layer:  VIA CLASS/SOLDERMASK_TOP*
G04 Layer:  PIN/SOLDERMASK_TOP*
G04 *
G04 Offset:    (0.0 0.0)*
G04 Mirror:    No*
G04 Mode:      Positive*
G04 Rotation:  0*
G04 FullContactRelief:  No*
G04 UndefLineWidth:     0.0*
G04 ================== end FILE IDENTIFICATION RECORD ====================*
%FSLAX35Y35*MOIN*%
%IR0*IPPOS*OFA0.00000B0.00000*MIA0B0*SFA1.00000B1.00000*%
%ADD10C,.155*%
%ADD21R,.022X.025*%
%ADD19R,.03X.055*%
%ADD13C,.04*%
%ADD17R,.055X.03*%
%ADD16R,.08X.06*%
%ADD11C,.07*%
%ADD20R,.065X.025*%
%ADD14C,.075*%
%ADD12R,.075X.068*%
%ADD18R,.068X.075*%
%ADD15R,.075X.075*%
%LPD*%
G75*
G54D10*
X14000Y18500D03*
X12500Y181500D03*
X226000Y17500D03*
X226500Y181500D03*
G54D20*
X116550Y75000D03*
Y102500D03*
X143450Y75000D03*
Y102500D03*
G54D11*
X12500Y90000D03*
Y120000D03*
G54D12*
X27500Y74000D03*
Y85000D03*
Y96500D03*
Y107500D03*
X130000Y125000D03*
Y136000D03*
X185000Y131000D03*
Y120000D03*
G54D21*
X188800Y146500D03*
X181300D03*
X185000Y153500D03*
G54D13*
X35000Y85000D03*
X42500Y115000D03*
X47500Y120000D03*
X57500Y95000D03*
X100000Y115000D03*
X140000Y122500D03*
Y140000D03*
X170000Y100000D03*
X196500Y153500D03*
X226500D03*
G54D14*
X20000Y137500D03*
X220000Y70000D03*
G54D15*
X20000Y157500D03*
X220000Y50000D03*
G54D16*
X57800Y73900D03*
X44200Y70100D03*
Y77800D03*
X77750Y92500D03*
X97250D03*
G54D17*
X52750Y130000D03*
Y125000D03*
Y120000D03*
Y115000D03*
Y145000D03*
Y140000D03*
Y135000D03*
X72250Y125000D03*
Y130000D03*
Y120000D03*
Y115000D03*
Y140000D03*
Y145000D03*
Y135000D03*
X150250Y110000D03*
Y130000D03*
Y125000D03*
Y120000D03*
Y115000D03*
Y140000D03*
Y135000D03*
X169750Y110000D03*
Y130000D03*
Y120000D03*
Y125000D03*
Y115000D03*
Y135000D03*
Y140000D03*
X199500Y110100D03*
Y118800D03*
Y127500D03*
Y140100D03*
X225500Y110000D03*
Y127400D03*
Y118700D03*
Y140000D03*
G54D18*
X54000Y160000D03*
X65000D03*
X93500Y107500D03*
X82500D03*
X211000Y170000D03*
X200000D03*
G54D19*
X85000Y125250D03*
X90000D03*
X95000D03*
X90000Y144750D03*
X85000D03*
X95000D03*
X100000Y125250D03*
X105000D03*
X110000D03*
X115000D03*
X105000Y144750D03*
X100000D03*
X110000D03*
X115000D03*
M02*
