G04 ================== begin FILE IDENTIFICATION RECORD ==================*
G04 Layout Name:  alimentation.brd*
G04 Film Name:    silkscreen_top*
G04 File Format:  Gerber RS274X*
G04 File Origin:  Cadence Allegro 16.5-S022*
G04 Origin Date:  Tue Apr 30 14:48:17 2013*
G04 *
G04 Layer:  REF DES/SILKSCREEN_TOP*
G04 Layer:  PACKAGE GEOMETRY/ASSEMBLY_TOP*
G04 Layer:  PACKAGE GEOMETRY/SILKSCREEN_TOP*
G04 Layer:  BOARD GEOMETRY/OUTLINE*
G04 Layer:  BOARD GEOMETRY/SILKSCREEN_TOP*
G04 *
G04 Offset:    (0.0 0.0)*
G04 Mirror:    No*
G04 Mode:      Positive*
G04 Rotation:  0*
G04 FullContactRelief:  No*
G04 UndefLineWidth:     0.0*
G04 ================== end FILE IDENTIFICATION RECORD ====================*
%FSLAX35Y35*MOIN*%
%IR0*IPPOS*OFA0.00000B0.00000*MIA0B0*SFA1.00000B1.00000*%
%ADD10C,.005*%
%ADD11C,.008*%
%ADD12C,.012*%
G75*
%LPD*%
G75*
G36*
G01X179000Y153000D02*
Y147500D01*
X191000D01*
Y153000D01*
X179000D01*
G37*
G54D10*
G01X196000Y166000D02*
X215000D01*
Y174000D01*
X196000D01*
Y166000D01*
G01D02*
X215000D01*
Y174000D01*
X196000D01*
Y166000D01*
G54D11*
G01X2500Y6500D02*
X237500D01*
Y192500D01*
X2500D01*
Y6500D01*
G54D12*
G01X18000Y125500D02*
X7000D01*
Y84500D01*
X18000D01*
Y125500D01*
G01D02*
X7000D01*
Y84500D01*
X18000D01*
Y125500D01*
G01X5000Y167500D02*
X37500D01*
Y127500D01*
X5000D01*
Y167500D01*
G01D02*
X37500D01*
Y127500D01*
X5000D01*
Y167500D01*
G01Y132500D02*
X12500D01*
Y142500D01*
X5000D01*
G01Y132500D02*
X12500D01*
Y142500D01*
X5000D01*
G01Y162500D02*
X12500D01*
Y152500D01*
X5000D01*
G01Y162500D02*
X12500D01*
Y152500D01*
X5000D01*
G01X23500Y89000D02*
Y70000D01*
X31500D01*
Y89000D01*
X23500D01*
G01D02*
Y70000D01*
X31500D01*
Y89000D01*
X23500D01*
G01Y111500D02*
Y92500D01*
X31500D01*
Y111500D01*
X23500D01*
G01D02*
Y92500D01*
X31500D01*
Y111500D01*
X23500D01*
G01X69000Y164000D02*
X50000D01*
Y156000D01*
X69000D01*
Y164000D01*
G01D02*
X50000D01*
Y156000D01*
X69000D01*
Y164000D01*
G01X57500Y147500D02*
Y112500D01*
G01Y147500D02*
Y112500D01*
G01X60250Y145000D02*
G03I-1000J0D01*
G01D02*
G03I-1000J0D01*
G01X79050Y84050D02*
X95950D01*
Y100950D01*
X79050D01*
Y84050D01*
G01D02*
X95950D01*
Y100950D01*
X79050D01*
Y84050D01*
G01X78500Y103500D02*
X97500D01*
Y111500D01*
X78500D01*
Y103500D01*
G01D02*
X97500D01*
Y111500D01*
X78500D01*
Y103500D01*
G01X86000Y131750D02*
G03I-1000J0D01*
G01D02*
G03I-1000J0D01*
G01X82500Y130000D02*
X117500D01*
G01X82500D02*
X117500D01*
G01X117150Y89600D02*
X142850D01*
Y115400D01*
X117150D01*
Y89600D01*
G01D02*
X142850D01*
Y115400D01*
X117150D01*
Y89600D01*
G01X134000Y121000D02*
Y140000D01*
X126000D01*
Y121000D01*
X134000D01*
G01D02*
Y140000D01*
X126000D01*
Y121000D01*
X134000D01*
G01X155000Y142500D02*
Y107500D01*
G01Y142500D02*
Y107500D01*
G01X157750Y140000D02*
G03I-1000J0D01*
G01D02*
G03I-1000J0D01*
G01X189000Y116000D02*
Y135000D01*
X181000D01*
Y116000D01*
X189000D01*
G01D02*
Y135000D01*
X181000D01*
Y116000D01*
X189000D01*
G01X235000Y40000D02*
X202500D01*
Y80000D01*
X235000D01*
Y40000D01*
G01D02*
X202500D01*
Y80000D01*
X235000D01*
Y40000D01*
G01X200750Y105500D02*
X224250D01*
Y144500D01*
X200750D01*
Y105500D01*
G01D02*
X224250D01*
Y144500D01*
X200750D01*
Y105500D01*
G01X235000Y45000D02*
X227500D01*
Y55000D01*
X235000D01*
G01Y45000D02*
X227500D01*
Y55000D01*
X235000D01*
G01Y75000D02*
X227500D01*
Y65000D01*
X235000D01*
G01Y75000D02*
X227500D01*
Y65000D01*
X235000D01*
M02*
