G04 ================== begin FILE IDENTIFICATION RECORD ==================*
G04 Layout Name:  pcbsonde.brd*
G04 Film Name:    soldermask_bottom*
G04 File Format:  Gerber RS274X*
G04 File Origin:  Cadence Allegro 16.5-S022*
G04 Origin Date:  Tue Apr 30 12:57:51 2013*
G04 *
G04 Layer:  VIA CLASS/SOLDERMASK_BOTTOM*
G04 Layer:  PIN/SOLDERMASK_BOTTOM*
G04 *
G04 Offset:    (0.00 0.00)*
G04 Mirror:    No*
G04 Mode:      Positive*
G04 Rotation:  0*
G04 FullContactRelief:  No*
G04 UndefLineWidth:     10.00*
G04 ================== end FILE IDENTIFICATION RECORD ====================*
%FSLAX25Y25*MOIN*%
%IR0*IPPOS*OFA0.00000B0.00000*MIA0B0*SFA1.00000B1.00000*%
%ADD12C,.06*%
%ADD13C,.044*%
%ADD10C,.08*%
%ADD14R,.06X.06*%
%ADD11R,.08X.08*%
%LPD*%
G75*
G54D10*
X65000Y47500D03*
X397400Y-16000D03*
X407400D03*
X463400Y-7600D03*
Y2400D03*
Y12400D03*
X462300Y65000D03*
Y75000D03*
Y85000D03*
X463000Y137700D03*
Y147700D03*
Y157700D03*
X533400Y2400D03*
Y-7600D03*
Y12400D03*
X532300Y85000D03*
Y75000D03*
Y65000D03*
X533000Y147700D03*
Y137700D03*
Y157700D03*
G54D11*
X65000Y57500D03*
X417400Y-16000D03*
G54D12*
X148000Y170500D03*
X162700Y-20400D03*
X172700D03*
X182700D03*
X158000Y170500D03*
X168000D03*
X178000D03*
X192700Y-20400D03*
X202700D03*
X212700D03*
X188000Y170500D03*
X198000D03*
X208000D03*
X222700Y-20400D03*
X234500Y170500D03*
X253300Y-20400D03*
X263300D03*
X273300D03*
X244500Y170500D03*
X254500D03*
X264500D03*
X283300Y-20400D03*
X293300D03*
X303300D03*
X274500Y170500D03*
X284500D03*
X294500D03*
X313300Y-20400D03*
X325000Y170500D03*
X335000D03*
X345000D03*
X355000D03*
X365000D03*
X375000D03*
X385000D03*
X554900Y2800D03*
Y12800D03*
Y74700D03*
Y84700D03*
Y147400D03*
Y157400D03*
G54D13*
X185000Y47200D03*
X188000Y152500D03*
X197500D03*
X222800Y47200D03*
X264000Y152500D03*
X285000Y160000D03*
X325000Y132500D03*
X307500Y152500D03*
X335000Y132500D03*
X345000Y152500D03*
X375000Y160000D03*
X365000Y152500D03*
Y160000D03*
X408500Y36000D03*
X435000Y12500D03*
Y25000D03*
X440000Y85000D03*
X432500Y92500D03*
G54D14*
X232700Y-20400D03*
X218000Y170500D03*
X323300Y-20400D03*
X304500Y170500D03*
X395000D03*
M02*
