G04 ================== begin FILE IDENTIFICATION RECORD ==================*
G04 Layout Name:  pcbsonde.brd*
G04 Film Name:    TOP*
G04 File Format:  Gerber RS274X*
G04 File Origin:  Cadence Allegro 16.5-S022*
G04 Origin Date:  Tue Apr 30 12:57:50 2013*
G04 *
G04 Layer:  ETCH/TOP*
G04 Layer:  PIN/TOP*
G04 Layer:  VIA CLASS/TOP*
G04 *
G04 Offset:    (0.00 0.00)*
G04 Mirror:    No*
G04 Mode:      Positive*
G04 Rotation:  0*
G04 FullContactRelief:  No*
G04 UndefLineWidth:     10.00*
G04 ================== end FILE IDENTIFICATION RECORD ====================*
%FSLAX25Y25*MOIN*%
%IR0*IPPOS*OFA0.00000B0.00000*MIA0B0*SFA1.00000B1.00000*%
%ADD14C,.031*%
%ADD13C,.055*%
%ADD11C,.065*%
%ADD15R,.055X.055*%
%ADD12R,.065X.065*%
%ADD17C,.11*%
%ADD10R,.07X.063*%
%ADD16R,.063X.07*%
%ADD18C,.03*%
%ADD19C,.05*%
G75*
%LPD*%
G75*
G54D10*
X87500Y61500D03*
Y43500D03*
X102500Y46500D03*
Y57500D03*
X112500Y46500D03*
Y57500D03*
G54D11*
X65000Y47500D03*
X397400Y-16000D03*
X407400D03*
X463400Y-7600D03*
Y2400D03*
Y12400D03*
X462300Y65000D03*
Y75000D03*
Y85000D03*
X463000Y137700D03*
Y147700D03*
Y157700D03*
X533400Y2400D03*
Y-7600D03*
Y12400D03*
X532300Y85000D03*
Y75000D03*
Y65000D03*
X533000Y147700D03*
Y137700D03*
Y157700D03*
G54D12*
X65000Y57500D03*
X417400Y-16000D03*
G54D13*
X148000Y170500D03*
X162700Y-20400D03*
X172700D03*
X182700D03*
X158000Y170500D03*
X168000D03*
X178000D03*
X192700Y-20400D03*
X202700D03*
X212700D03*
X188000Y170500D03*
X198000D03*
X208000D03*
X222700Y-20400D03*
X234500Y170500D03*
X253300Y-20400D03*
X263300D03*
X273300D03*
X244500Y170500D03*
X254500D03*
X264500D03*
X283300Y-20400D03*
X293300D03*
X303300D03*
X274500Y170500D03*
X284500D03*
X294500D03*
X313300Y-20400D03*
X325000Y170500D03*
X335000D03*
X345000D03*
X355000D03*
X365000D03*
X375000D03*
X385000D03*
X554900Y2800D03*
Y12800D03*
Y74700D03*
Y84700D03*
Y147400D03*
Y157400D03*
G54D14*
X185000Y47200D03*
X188000Y152500D03*
X197500D03*
X222800Y47200D03*
X264000Y152500D03*
X285000Y160000D03*
X325000Y132500D03*
X307500Y152500D03*
X335000Y132500D03*
X345000Y152500D03*
X375000Y160000D03*
X365000Y152500D03*
Y160000D03*
X408500Y36000D03*
X435000Y12500D03*
Y25000D03*
X440000Y85000D03*
X432500Y92500D03*
G54D15*
X232700Y-20400D03*
X218000Y170500D03*
X323300Y-20400D03*
X304500Y170500D03*
X395000D03*
G54D16*
X408500Y5000D03*
X397500D03*
X450300Y-8200D03*
X439300D03*
X449900Y4700D03*
X438900D03*
X449600Y51800D03*
X438600D03*
X449600Y65100D03*
X438600D03*
X449800Y123600D03*
X438800D03*
X450000Y137900D03*
X439000D03*
G54D17*
X574900Y-17200D03*
Y22800D03*
Y54700D03*
Y94700D03*
Y127400D03*
Y167400D03*
G54D18*
G01X188000Y170500D02*
Y152500D01*
G01X197500D02*
Y165250D01*
X198000Y165750D01*
Y170500D01*
G01X264000Y152500D02*
Y165250D01*
X264500Y165750D01*
Y170500D01*
G01X285000Y160000D02*
Y166250D01*
X284500Y166750D01*
Y170500D01*
G01X307500Y152500D02*
X276000D01*
X275000Y153500D01*
Y165250D01*
X274500Y165750D01*
Y170500D01*
G01X325000Y132500D02*
Y170500D01*
G01X335000Y132500D02*
Y170500D01*
G01X463000Y147700D02*
X416800D01*
X413087Y143987D01*
X356000D01*
X355000Y144987D01*
Y170500D01*
G01X345000Y152500D02*
Y170500D01*
G01X375000D02*
Y160000D01*
G01X365000Y152500D02*
X409000D01*
X410000Y153500D01*
Y156700D01*
X411000Y157700D01*
X463000D01*
G01X365000Y170500D02*
Y160000D01*
G01X407400Y-16000D02*
Y-600D01*
X408500Y500D01*
Y5000D01*
G01D02*
Y36000D01*
G01X435000Y12500D02*
X459050D01*
X459150Y12400D01*
X463400D01*
G01X435000Y25000D02*
X474000D01*
X475000Y24000D01*
Y3400D01*
X474000Y2400D01*
X463400D01*
G01X462300Y75000D02*
X433500D01*
X432500Y76000D01*
Y92500D01*
G01X462300Y85000D02*
X440000D01*
G01X533400Y2400D02*
X550750D01*
X551150Y2800D01*
X554900D01*
G01X532300Y75000D02*
X550850D01*
X551150Y74700D01*
X554900D01*
G01X533000Y147700D02*
X550850D01*
X551150Y147400D01*
X554900D01*
G54D19*
G01X87500Y61500D02*
X93000D01*
X97000Y57500D01*
X102500D01*
G01X65000D02*
X78000D01*
X82000Y61500D01*
X87500D01*
G01X65000Y47500D02*
X83500D01*
X87500Y43500D01*
G01D02*
X94000D01*
X97000Y46500D01*
X102500D01*
G01X112500Y57500D02*
X202500D01*
G01X102500D02*
X112500D01*
G01X102500Y46500D02*
X112500D01*
G01X185000Y47200D02*
X180450D01*
X179750Y46500D01*
X112500D01*
G01X202500Y57500D02*
X202800Y57200D01*
Y-20500D01*
G01X422500Y123500D02*
X421500Y122500D01*
X249600D01*
X247100Y120000D01*
Y61500D01*
X243100Y57500D01*
X202500D01*
G01X222800Y-20500D02*
Y47200D01*
G01X417400Y-21900D02*
X414400Y-24900D01*
X370500D01*
X367500Y-21900D01*
Y42000D01*
X362300Y47200D01*
X222800D01*
G01X397500Y5000D02*
Y-10650D01*
X397400Y-10750D01*
Y-16000D01*
G01X564800Y12900D02*
Y-21500D01*
X561300Y-25000D01*
X418400D01*
X417400Y-24000D01*
Y-21900D01*
G01D02*
Y-16000D01*
G01X422500Y65100D02*
Y5700D01*
X423500Y4700D01*
X438900D01*
G01X422500Y65100D02*
X422400Y65000D01*
X400500D01*
X397500Y62000D01*
Y5000D01*
G01X533400Y-7600D02*
Y-13950D01*
X531050Y-16300D01*
X440300D01*
X439300Y-15300D01*
Y-8200D01*
G01X438900Y4700D02*
Y-2300D01*
X439300Y-2700D01*
Y-8200D01*
G01X449900Y4700D02*
Y-2300D01*
X450300Y-2700D01*
Y-8200D01*
G01X463400Y-7600D02*
X458150D01*
X457550Y-8200D01*
X450300D01*
G01X532300Y65000D02*
X532500Y64800D01*
Y45500D01*
X529500Y42500D01*
X441600D01*
X438600Y45500D01*
Y51800D01*
G01Y65100D02*
Y51800D01*
G01X449600D02*
Y65100D01*
G01X438600D02*
X422500D01*
G01Y123500D02*
Y65100D01*
G01X449600D02*
X456950D01*
X457050Y65000D01*
X462300D01*
G01X533000Y137700D02*
Y114200D01*
X532500Y113700D01*
X441800D01*
X438800Y116700D01*
Y123600D01*
G01X439000Y137900D02*
Y129300D01*
X438800Y129100D01*
Y123600D01*
G01X439000Y137900D02*
X422500D01*
Y123500D01*
G01X450000Y137900D02*
X457550D01*
X457750Y137700D01*
X463000D01*
G01X449800Y123600D02*
Y132200D01*
X450000Y132400D01*
Y137900D01*
G01X533400Y12400D02*
X533300Y12500D01*
X503100D01*
X500100Y9500D01*
Y-4600D01*
X497100Y-7600D01*
X463400D01*
G01X532300Y85000D02*
X500000D01*
X497500Y82500D01*
Y68000D01*
X494500Y65000D01*
X462300D01*
G01X533000Y157700D02*
X497900D01*
X497700Y157500D01*
Y140700D01*
X494700Y137700D01*
X463000D01*
G01X533400Y12400D02*
X549750D01*
X550150Y12800D01*
X554900D01*
G01Y84700D02*
X537850D01*
X537550Y85000D01*
X532300D01*
G01X533000Y157700D02*
X549850D01*
X550150Y157400D01*
X554900D01*
G01Y12800D02*
X564700D01*
X564800Y12900D01*
G01Y84700D02*
Y12900D01*
G01X554900Y84700D02*
X564800D01*
G01X554900Y157400D02*
X562100D01*
X565100Y154400D01*
Y85000D01*
X564800Y84700D01*
M02*
