G04 ================== begin FILE IDENTIFICATION RECORD ==================*
G04 Layout Name:  E:/cegep/cours/1Hiver_2014/Projet/pcb/board6DFfils7Fini.brd*
G04 Film Name:    silkscreen_top*
G04 File Format:  Gerber RS274X*
G04 File Origin:  Cadence Allegro 16.6-S021*
G04 Origin Date:  Wed Apr 09 16:31:28 2014*
G04 *
G04 Layer:  REF DES/SILKSCREEN_TOP*
G04 Layer:  PACKAGE GEOMETRY/ASSEMBLY_TOP*
G04 Layer:  BOARD GEOMETRY/OUTLINE*
G04 Layer:  BOARD GEOMETRY/SILKSCREEN_TOP*
G04 *
G04 Offset:    (0.00 0.00)*
G04 Mirror:    No*
G04 Mode:      Positive*
G04 Rotation:  0*
G04 FullContactRelief:  No*
G04 UndefLineWidth:     10.00*
G04 ================== end FILE IDENTIFICATION RECORD ====================*
%FSLAX25Y25*MOIN*%
%IR0*IPPOS*OFA0.00000B0.00000*MIA0B0*SFA1.00000B1.00000*%
%ADD10C,.01*%
%ADD11C,.005*%
G75*
%LPD*%
G75*
G54D10*
G01X174100Y247700D02*
X4100D01*
Y-2300D01*
X174100D01*
Y247700D01*
G01X14100Y30200D02*
Y-60800D01*
X71600D01*
Y30200D01*
X14100D01*
G01X4100Y200D02*
X14100D01*
Y30200D01*
X4100D01*
Y200D01*
G01Y32700D02*
X76500D01*
G01X4633Y114800D02*
X4950Y114300D01*
X5330Y113967D01*
X5773Y113800D01*
X6280Y113967D01*
X6660Y114300D01*
X7040Y114800D01*
X7167Y115467D01*
Y118800D01*
G01X9607Y114800D02*
X9987Y114217D01*
X10493Y113883D01*
X11063Y113800D01*
X11570Y113883D01*
X12077Y114300D01*
X12393Y114800D01*
X12457Y115300D01*
X12330Y115883D01*
X11887Y116300D01*
X11443Y116467D01*
X10873D01*
G01X11443D02*
X11823Y116717D01*
X12140Y117133D01*
X12267Y117633D01*
X12140Y118133D01*
X11823Y118550D01*
X11253Y118800D01*
X10683Y118717D01*
X10113Y118383D01*
G01X76500Y32700D02*
Y112700D01*
X4100D01*
G01X6100Y132700D02*
Y120300D01*
X18500D01*
Y132700D01*
X6100D01*
G01X20400Y225250D02*
X17300D01*
G01X20400Y226132D02*
Y224368D01*
G01X17713Y222955D02*
X17455Y222648D01*
X17300Y222303D01*
Y221997D01*
X17455Y221690D01*
X17713Y221460D01*
X18075Y221345D01*
X18437Y221422D01*
X18747Y221613D01*
X18953Y221958D01*
X19057Y222418D01*
X19263Y222687D01*
X19625Y222802D01*
X19987Y222725D01*
X20245Y222533D01*
X20400Y222265D01*
Y221997D01*
X20297Y221728D01*
X20038Y221498D01*
G01X17300Y219050D02*
X17352Y219357D01*
X17558Y219625D01*
X17868Y219855D01*
X18230Y220008D01*
X18643Y220085D01*
X19057D01*
X19470Y220008D01*
X19832Y219855D01*
X20142Y219625D01*
X20348Y219357D01*
X20400Y219050D01*
X20348Y218743D01*
X20142Y218475D01*
X19832Y218245D01*
X19470Y218092D01*
X19057Y218015D01*
X18643D01*
X18230Y218092D01*
X17868Y218245D01*
X17558Y218475D01*
X17352Y218743D01*
X17300Y219050D01*
G01Y213617D02*
X20400D01*
Y212697D01*
X20245Y212390D01*
X19883Y212160D01*
X19470Y212083D01*
X19057Y212160D01*
X18747Y212352D01*
X18592Y212697D01*
Y213617D01*
G01X17300Y210287D02*
X19367D01*
G01X18953D02*
X19160Y210095D01*
X19315Y209903D01*
X19367Y209635D01*
X19315Y209443D01*
X19160Y209213D01*
G01X17300Y206650D02*
X17352Y206880D01*
X17558Y207110D01*
X17920Y207263D01*
X18333Y207340D01*
X18747Y207263D01*
X19108Y207110D01*
X19315Y206880D01*
X19367Y206650D01*
X19315Y206420D01*
X19108Y206190D01*
X18747Y206037D01*
X18333Y205998D01*
X17920Y206037D01*
X17558Y206190D01*
X17352Y206420D01*
X17300Y206650D01*
G01X16525Y204163D02*
X16318Y203895D01*
X16267Y203665D01*
X16370Y203358D01*
X16628Y203128D01*
X17093Y203013D01*
X19367D01*
G01X20193D02*
X20245Y203090D01*
X20348D01*
X20400Y203013D01*
X20348Y202937D01*
X20245D01*
X20193Y203013D01*
G01X18695Y201025D02*
Y199798D01*
X19057Y199913D01*
X19263Y200105D01*
X19367Y200373D01*
X19315Y200642D01*
X19160Y200872D01*
X18798Y201025D01*
X18488Y201102D01*
X18178D01*
X17868Y201025D01*
X17558Y200833D01*
X17352Y200603D01*
X17300Y200335D01*
X17403Y200067D01*
X17713Y199798D01*
G01X19108Y196737D02*
X19315Y197005D01*
X19367Y197235D01*
X19263Y197542D01*
X19057Y197772D01*
X18695Y197925D01*
X18333Y197963D01*
X17972Y197925D01*
X17662Y197772D01*
X17403Y197542D01*
X17300Y197235D01*
X17403Y196967D01*
X17610Y196737D01*
G01X20400Y194250D02*
X17300D01*
G01X19367Y194787D02*
Y193713D01*
G01X20400Y189200D02*
X17300Y188663D01*
X20400Y188050D01*
X17300Y187437D01*
X20400Y186900D01*
G01X19367Y184950D02*
X17300D01*
G01X20193D02*
X20245Y185027D01*
X20348D01*
X20400Y184950D01*
X20348Y184873D01*
X20245D01*
X20193Y184950D01*
G01X17300Y182502D02*
X19367D01*
G01X18850D02*
X19108Y182348D01*
X19315Y182118D01*
X19367Y181812D01*
X19315Y181543D01*
X19108Y181313D01*
X18747Y181198D01*
X17300D01*
G01X20400Y178750D02*
X17300D01*
G01X19367Y179287D02*
Y178213D01*
G01X18695Y176225D02*
Y174998D01*
X19057Y175113D01*
X19263Y175305D01*
X19367Y175573D01*
X19315Y175842D01*
X19160Y176072D01*
X18798Y176225D01*
X18488Y176302D01*
X18178D01*
X17868Y176225D01*
X17558Y176033D01*
X17352Y175803D01*
X17300Y175535D01*
X17403Y175267D01*
X17713Y174998D01*
G01X17300Y173087D02*
X19367D01*
G01X18953D02*
X19160Y172895D01*
X19315Y172703D01*
X19367Y172435D01*
X19315Y172243D01*
X19160Y172013D01*
G01X19883Y167078D02*
X20193Y166848D01*
X20348Y166580D01*
X20400Y166273D01*
X20297Y165890D01*
X20038Y165622D01*
X19728Y165545D01*
X19418Y165583D01*
X19160Y165737D01*
X18643Y166503D01*
X18282Y166848D01*
X17765Y167078D01*
X17300Y167155D01*
Y165545D01*
G01X20400Y163250D02*
X20297Y163557D01*
X20038Y163787D01*
X19728Y163940D01*
X19315Y164055D01*
X18850Y164093D01*
X18385Y164055D01*
X17972Y163940D01*
X17662Y163787D01*
X17403Y163557D01*
X17300Y163250D01*
X17403Y162943D01*
X17662Y162713D01*
X17972Y162560D01*
X18385Y162445D01*
X18850Y162407D01*
X19315Y162445D01*
X19728Y162560D01*
X20038Y162713D01*
X20297Y162943D01*
X20400Y163250D01*
G01X17300Y160150D02*
X20400D01*
X19780Y160610D01*
G01X17300D02*
Y159690D01*
G01Y156590D02*
X20400D01*
X18178Y158008D01*
Y156092D01*
G01X16242Y224407D02*
X16397Y224637D01*
X16500Y224905D01*
Y225212D01*
X16345Y225557D01*
X16087Y225825D01*
X15777Y226017D01*
X15260Y226170D01*
X14795Y226208D01*
X14330Y226132D01*
X14020Y226017D01*
X13710Y225787D01*
X13503Y225518D01*
X13400Y225250D01*
Y224982D01*
X13503Y224713D01*
X13658Y224483D01*
X13865Y224292D01*
G01X14795Y222725D02*
Y221498D01*
X15157Y221613D01*
X15363Y221805D01*
X15467Y222073D01*
X15415Y222342D01*
X15260Y222572D01*
X14898Y222725D01*
X14588Y222802D01*
X14278D01*
X13968Y222725D01*
X13658Y222533D01*
X13452Y222303D01*
X13400Y222035D01*
X13503Y221767D01*
X13813Y221498D01*
G01X12625Y219587D02*
X12418Y219318D01*
X12367Y219012D01*
X12418Y218743D01*
X12677Y218513D01*
X13038Y218360D01*
X15467D01*
G01X15053D02*
X15260Y218513D01*
X15415Y218743D01*
X15467Y219012D01*
X15363Y219318D01*
X15157Y219510D01*
X14795Y219663D01*
X14433Y219740D01*
X14123Y219702D01*
X13762Y219548D01*
X13503Y219318D01*
X13400Y219012D01*
X13452Y218782D01*
X13658Y218513D01*
X13865Y218360D01*
G01X14795Y216525D02*
Y215298D01*
X15157Y215413D01*
X15363Y215605D01*
X15467Y215873D01*
X15415Y216142D01*
X15260Y216372D01*
X14898Y216525D01*
X14588Y216602D01*
X14278D01*
X13968Y216525D01*
X13658Y216333D01*
X13452Y216103D01*
X13400Y215835D01*
X13503Y215567D01*
X13813Y215298D01*
G01X12367Y213540D02*
X15467D01*
G01X15002D02*
X15260Y213348D01*
X15415Y213157D01*
X15467Y212850D01*
X15415Y212582D01*
X15157Y212313D01*
X14795Y212198D01*
X14433Y212160D01*
X14072Y212198D01*
X13710Y212313D01*
X13503Y212543D01*
X13400Y212850D01*
X13452Y213118D01*
X13607Y213387D01*
X13813Y213540D01*
G01X16500Y205960D02*
X13400D01*
G01X13865D02*
X13607Y206113D01*
X13452Y206343D01*
X13400Y206612D01*
X13503Y206918D01*
X13762Y207148D01*
X14072Y207302D01*
X14433Y207340D01*
X14795Y207302D01*
X15105Y207148D01*
X15363Y206918D01*
X15467Y206612D01*
X15415Y206343D01*
X15312Y206152D01*
X15105Y205960D01*
G01X14795Y204125D02*
Y202898D01*
X15157Y203013D01*
X15363Y203205D01*
X15467Y203473D01*
X15415Y203742D01*
X15260Y203972D01*
X14898Y204125D01*
X14588Y204202D01*
X14278D01*
X13968Y204125D01*
X13658Y203933D01*
X13452Y203703D01*
X13400Y203435D01*
X13503Y203167D01*
X13813Y202898D01*
G01Y198155D02*
X13555Y197848D01*
X13400Y197503D01*
Y197197D01*
X13555Y196890D01*
X13813Y196660D01*
X14175Y196545D01*
X14537Y196622D01*
X14847Y196813D01*
X15053Y197158D01*
X15157Y197618D01*
X15363Y197887D01*
X15725Y198002D01*
X16087Y197925D01*
X16345Y197733D01*
X16500Y197465D01*
Y197197D01*
X16397Y196928D01*
X16138Y196698D01*
G01X13400Y194902D02*
X16500D01*
G01X15002D02*
X15260Y194710D01*
X15415Y194518D01*
X15467Y194212D01*
X15415Y193982D01*
X15208Y193713D01*
X14898Y193598D01*
X13400D01*
G01X14795Y191725D02*
Y190498D01*
X15157Y190613D01*
X15363Y190805D01*
X15467Y191073D01*
X15415Y191342D01*
X15260Y191572D01*
X14898Y191725D01*
X14588Y191802D01*
X14278D01*
X13968Y191725D01*
X13658Y191533D01*
X13452Y191303D01*
X13400Y191035D01*
X13503Y190767D01*
X13813Y190498D01*
G01X13400Y188587D02*
X15467D01*
G01X15053D02*
X15260Y188395D01*
X15415Y188203D01*
X15467Y187935D01*
X15415Y187743D01*
X15260Y187513D01*
G01X13400Y185640D02*
X16500D01*
G01X14950D02*
X15260Y185448D01*
X15415Y185218D01*
X15467Y184988D01*
X15363Y184643D01*
X15157Y184413D01*
X14795Y184260D01*
X14382D01*
X13968Y184337D01*
X13658Y184490D01*
X13452Y184758D01*
X13400Y184988D01*
X13452Y185218D01*
X13607Y185448D01*
X13865Y185640D01*
G01X13400Y182387D02*
X15467D01*
G01X15053D02*
X15260Y182195D01*
X15415Y182003D01*
X15467Y181735D01*
X15415Y181543D01*
X15260Y181313D01*
G01X13400Y178750D02*
X13452Y178980D01*
X13658Y179210D01*
X14020Y179363D01*
X14433Y179440D01*
X14847Y179363D01*
X15208Y179210D01*
X15415Y178980D01*
X15467Y178750D01*
X15415Y178520D01*
X15208Y178290D01*
X14847Y178137D01*
X14433Y178098D01*
X14020Y178137D01*
X13658Y178290D01*
X13452Y178520D01*
X13400Y178750D01*
G01Y175650D02*
X13452Y175880D01*
X13658Y176110D01*
X14020Y176263D01*
X14433Y176340D01*
X14847Y176263D01*
X15208Y176110D01*
X15415Y175880D01*
X15467Y175650D01*
X15415Y175420D01*
X15208Y175190D01*
X14847Y175037D01*
X14433Y174998D01*
X14020Y175037D01*
X13658Y175190D01*
X13452Y175420D01*
X13400Y175650D01*
G01Y173202D02*
X16500D01*
G01X15467Y171975D02*
X14278Y173202D01*
G01X14743Y172703D02*
X13400Y171898D01*
G01X14795Y170025D02*
Y168798D01*
X15157Y168913D01*
X15363Y169105D01*
X15467Y169373D01*
X15415Y169642D01*
X15260Y169872D01*
X14898Y170025D01*
X14588Y170102D01*
X14278D01*
X13968Y170025D01*
X13658Y169833D01*
X13452Y169603D01*
X13400Y169335D01*
X13503Y169067D01*
X13813Y168798D01*
G01X6200Y245600D02*
Y233200D01*
X18600D01*
Y245600D01*
X6200D01*
G01X25100Y226247D02*
X28200D01*
X25617Y225250D01*
X28200Y224253D01*
X25100D01*
G01Y221460D02*
X27167D01*
G01X26805D02*
X27012Y221613D01*
X27115Y221843D01*
X27167Y222112D01*
X27063Y222380D01*
X26857Y222610D01*
X26547Y222763D01*
X26133Y222840D01*
X25720Y222763D01*
X25410Y222610D01*
X25203Y222380D01*
X25100Y222112D01*
X25152Y221843D01*
X25307Y221613D01*
X25513Y221460D01*
G01X27167Y219625D02*
X25100Y218475D01*
G01X27167D02*
X25100Y219625D01*
G01X27167Y215950D02*
X25100D01*
G01X27993D02*
X28045Y216027D01*
X28148D01*
X28200Y215950D01*
X28148Y215873D01*
X28045D01*
X27993Y215950D01*
G01X25100Y214000D02*
X27167D01*
G01X26598D02*
X26857Y213885D01*
X27063Y213693D01*
X27167Y213425D01*
X27063Y213157D01*
X26857Y212965D01*
X26598Y212850D01*
X25100D01*
G01X26598D02*
X26857Y212735D01*
X27063Y212543D01*
X27167Y212275D01*
X27063Y212007D01*
X26857Y211815D01*
X26547Y211700D01*
X25100D01*
G01X26495Y210325D02*
Y209098D01*
X26857Y209213D01*
X27063Y209405D01*
X27167Y209673D01*
X27115Y209942D01*
X26960Y210172D01*
X26598Y210325D01*
X26288Y210402D01*
X25978D01*
X25668Y210325D01*
X25358Y210133D01*
X25152Y209903D01*
X25100Y209635D01*
X25203Y209367D01*
X25513Y209098D01*
G01X26650Y203320D02*
Y202553D01*
X25720D01*
X25410Y202783D01*
X25203Y203052D01*
X25100Y203435D01*
X25203Y203818D01*
X25410Y204087D01*
X25720Y204317D01*
X26082Y204470D01*
X26495Y204547D01*
X26857D01*
X27167Y204470D01*
X27528Y204317D01*
X27838Y204087D01*
X28045Y203857D01*
X28200Y203550D01*
Y203282D01*
X28097Y202975D01*
X27890Y202745D01*
G01X25100Y199760D02*
X27167D01*
G01X26805D02*
X27012Y199913D01*
X27115Y200143D01*
X27167Y200412D01*
X27063Y200680D01*
X26857Y200910D01*
X26547Y201063D01*
X26133Y201140D01*
X25720Y201063D01*
X25410Y200910D01*
X25203Y200680D01*
X25100Y200412D01*
X25152Y200143D01*
X25307Y199913D01*
X25513Y199760D01*
G01X27167Y198002D02*
X25720D01*
X25358Y197848D01*
X25152Y197618D01*
X25100Y197350D01*
X25152Y197082D01*
X25358Y196852D01*
X25720Y196698D01*
G01X25100D02*
X27167D01*
G01X28200Y193560D02*
X25100D01*
G01X25565D02*
X25307Y193713D01*
X25152Y193943D01*
X25100Y194212D01*
X25203Y194518D01*
X25462Y194748D01*
X25772Y194902D01*
X26133Y194940D01*
X26495Y194902D01*
X26805Y194748D01*
X27063Y194518D01*
X27167Y194212D01*
X27115Y193943D01*
X27012Y193752D01*
X26805Y193560D01*
G01X25100Y191687D02*
X27167D01*
G01X26753D02*
X26960Y191495D01*
X27115Y191303D01*
X27167Y191035D01*
X27115Y190843D01*
X26960Y190613D01*
G01X26495Y188625D02*
Y187398D01*
X26857Y187513D01*
X27063Y187705D01*
X27167Y187973D01*
X27115Y188242D01*
X26960Y188472D01*
X26598Y188625D01*
X26288Y188702D01*
X25978D01*
X25668Y188625D01*
X25358Y188433D01*
X25152Y188203D01*
X25100Y187935D01*
X25203Y187667D01*
X25513Y187398D01*
G01X25100Y184260D02*
X27167D01*
G01X26805D02*
X27012Y184413D01*
X27115Y184643D01*
X27167Y184912D01*
X27063Y185180D01*
X26857Y185410D01*
X26547Y185563D01*
X26133Y185640D01*
X25720Y185563D01*
X25410Y185410D01*
X25203Y185180D01*
X25100Y184912D01*
X25152Y184643D01*
X25307Y184413D01*
X25513Y184260D01*
G01X27167Y182502D02*
X25720D01*
X25358Y182348D01*
X25152Y182118D01*
X25100Y181850D01*
X25152Y181582D01*
X25358Y181352D01*
X25720Y181198D01*
G01X25100D02*
X27167D01*
G01X24067Y174500D02*
X27167Y176417D01*
X27683D01*
X28200Y176033D01*
Y175650D01*
X27683Y175267D01*
X27167D01*
X26650Y175650D01*
X26133Y176417D01*
X25617Y176800D01*
X24583D01*
X24067Y176417D01*
Y175267D01*
X25100Y174500D01*
G01Y170447D02*
X28200D01*
X25617Y169450D01*
X28200Y168453D01*
X25100D01*
G01Y165660D02*
X27167D01*
G01X26805D02*
X27012Y165813D01*
X27115Y166043D01*
X27167Y166312D01*
X27063Y166580D01*
X26857Y166810D01*
X26547Y166963D01*
X26133Y167040D01*
X25720Y166963D01*
X25410Y166810D01*
X25203Y166580D01*
X25100Y166312D01*
X25152Y166043D01*
X25307Y165813D01*
X25513Y165660D01*
G01X28200Y163250D02*
X25100D01*
G01X27167Y163787D02*
Y162713D01*
G01X25100Y160802D02*
X28200D01*
G01X26702D02*
X26960Y160610D01*
X27115Y160418D01*
X27167Y160112D01*
X27115Y159882D01*
X26908Y159613D01*
X26598Y159498D01*
X25100D01*
G01X27167Y157050D02*
X25100D01*
G01X27993D02*
X28045Y157127D01*
X28148D01*
X28200Y157050D01*
X28148Y156973D01*
X28045D01*
X27993Y157050D01*
G01X26495Y154525D02*
Y153298D01*
X26857Y153413D01*
X27063Y153605D01*
X27167Y153873D01*
X27115Y154142D01*
X26960Y154372D01*
X26598Y154525D01*
X26288Y154602D01*
X25978D01*
X25668Y154525D01*
X25358Y154333D01*
X25152Y154103D01*
X25100Y153835D01*
X25203Y153567D01*
X25513Y153298D01*
G01X27167Y151502D02*
X25720D01*
X25358Y151348D01*
X25152Y151118D01*
X25100Y150850D01*
X25152Y150582D01*
X25358Y150352D01*
X25720Y150198D01*
G01X25100D02*
X27167D01*
G01X26753Y144343D02*
X26908Y144190D01*
X27167Y144075D01*
X27528Y143998D01*
X27838Y144075D01*
X28045Y144228D01*
X28200Y144497D01*
Y145532D01*
X25100D01*
Y144267D01*
X25307Y143998D01*
X25617Y143845D01*
X25978Y143768D01*
X26340Y143845D01*
X26650Y144075D01*
X26753Y144343D01*
Y145532D01*
G01X26495Y142125D02*
Y140898D01*
X26857Y141013D01*
X27063Y141205D01*
X27167Y141473D01*
X27115Y141742D01*
X26960Y141972D01*
X26598Y142125D01*
X26288Y142202D01*
X25978D01*
X25668Y142125D01*
X25358Y141933D01*
X25152Y141703D01*
X25100Y141435D01*
X25203Y141167D01*
X25513Y140898D01*
G01X25100Y137760D02*
X27167D01*
G01X26805D02*
X27012Y137913D01*
X27115Y138143D01*
X27167Y138412D01*
X27063Y138680D01*
X26857Y138910D01*
X26547Y139063D01*
X26133Y139140D01*
X25720Y139063D01*
X25410Y138910D01*
X25203Y138680D01*
X25100Y138412D01*
X25152Y138143D01*
X25307Y137913D01*
X25513Y137760D01*
G01X27167Y136002D02*
X25720D01*
X25358Y135848D01*
X25152Y135618D01*
X25100Y135350D01*
X25152Y135082D01*
X25358Y134852D01*
X25720Y134698D01*
G01X25100D02*
X27167D01*
G01X24067Y132940D02*
X27167D01*
G01X26702D02*
X26960Y132748D01*
X27115Y132557D01*
X27167Y132250D01*
X27115Y131982D01*
X26857Y131713D01*
X26495Y131598D01*
X26133Y131560D01*
X25772Y131598D01*
X25410Y131713D01*
X25203Y131943D01*
X25100Y132250D01*
X25152Y132518D01*
X25307Y132787D01*
X25513Y132940D01*
G01X25100Y129687D02*
X27167D01*
G01X26753D02*
X26960Y129495D01*
X27115Y129303D01*
X27167Y129035D01*
X27115Y128843D01*
X26960Y128613D01*
G01X26495Y126625D02*
Y125398D01*
X26857Y125513D01*
X27063Y125705D01*
X27167Y125973D01*
X27115Y126242D01*
X26960Y126472D01*
X26598Y126625D01*
X26288Y126702D01*
X25978D01*
X25668Y126625D01*
X25358Y126433D01*
X25152Y126203D01*
X25100Y125935D01*
X25203Y125667D01*
X25513Y125398D01*
G01X24042Y224407D02*
X24197Y224637D01*
X24300Y224905D01*
Y225212D01*
X24145Y225557D01*
X23887Y225825D01*
X23577Y226017D01*
X23060Y226170D01*
X22595Y226208D01*
X22130Y226132D01*
X21820Y226017D01*
X21510Y225787D01*
X21303Y225518D01*
X21200Y225250D01*
Y224982D01*
X21303Y224713D01*
X21458Y224483D01*
X21665Y224292D01*
G01X21200Y222150D02*
X24300D01*
G01X21200Y219050D02*
X21252Y219280D01*
X21458Y219510D01*
X21820Y219663D01*
X22233Y219740D01*
X22647Y219663D01*
X23008Y219510D01*
X23215Y219280D01*
X23267Y219050D01*
X23215Y218820D01*
X23008Y218590D01*
X22647Y218437D01*
X22233Y218398D01*
X21820Y218437D01*
X21458Y218590D01*
X21252Y218820D01*
X21200Y219050D01*
G01X23267Y216602D02*
X21820D01*
X21458Y216448D01*
X21252Y216218D01*
X21200Y215950D01*
X21252Y215682D01*
X21458Y215452D01*
X21820Y215298D01*
G01X21200D02*
X23267D01*
G01X24300Y212160D02*
X21200D01*
G01X21665D02*
X21407Y212313D01*
X21252Y212543D01*
X21200Y212812D01*
X21303Y213118D01*
X21562Y213348D01*
X21872Y213502D01*
X22233Y213540D01*
X22595Y213502D01*
X22905Y213348D01*
X23163Y213118D01*
X23267Y212812D01*
X23215Y212543D01*
X23112Y212352D01*
X22905Y212160D01*
G01X24300Y210210D02*
Y209290D01*
G01Y209750D02*
X21200D01*
G01Y210210D02*
Y209290D01*
G01Y207608D02*
X24300Y206650D01*
X21200Y205692D01*
G01X22285Y206037D02*
Y207263D01*
G01X21200Y201217D02*
X24300D01*
Y200297D01*
X24145Y199990D01*
X23783Y199760D01*
X23370Y199683D01*
X22957Y199760D01*
X22647Y199952D01*
X22492Y200297D01*
Y201217D01*
G01X21200Y197887D02*
X23267D01*
G01X22853D02*
X23060Y197695D01*
X23215Y197503D01*
X23267Y197235D01*
X23215Y197043D01*
X23060Y196813D01*
G01X21200Y194250D02*
X21252Y194480D01*
X21458Y194710D01*
X21820Y194863D01*
X22233Y194940D01*
X22647Y194863D01*
X23008Y194710D01*
X23215Y194480D01*
X23267Y194250D01*
X23215Y194020D01*
X23008Y193790D01*
X22647Y193637D01*
X22233Y193598D01*
X21820Y193637D01*
X21458Y193790D01*
X21252Y194020D01*
X21200Y194250D01*
G01X20425Y191763D02*
X20218Y191495D01*
X20167Y191265D01*
X20270Y190958D01*
X20528Y190728D01*
X20993Y190613D01*
X23267D01*
G01X24093D02*
X24145Y190690D01*
X24248D01*
X24300Y190613D01*
X24248Y190537D01*
X24145D01*
X24093Y190613D01*
G01X22595Y188625D02*
Y187398D01*
X22957Y187513D01*
X23163Y187705D01*
X23267Y187973D01*
X23215Y188242D01*
X23060Y188472D01*
X22698Y188625D01*
X22388Y188702D01*
X22078D01*
X21768Y188625D01*
X21458Y188433D01*
X21252Y188203D01*
X21200Y187935D01*
X21303Y187667D01*
X21613Y187398D01*
G01X23008Y184337D02*
X23215Y184605D01*
X23267Y184835D01*
X23163Y185142D01*
X22957Y185372D01*
X22595Y185525D01*
X22233Y185563D01*
X21872Y185525D01*
X21562Y185372D01*
X21303Y185142D01*
X21200Y184835D01*
X21303Y184567D01*
X21510Y184337D01*
G01X24300Y181850D02*
X21200D01*
G01X23267Y182387D02*
Y181313D01*
G01X24300Y176800D02*
X21200Y176263D01*
X24300Y175650D01*
X21200Y175037D01*
X24300Y174500D01*
G01X21200Y171860D02*
X23267D01*
G01X22905D02*
X23112Y172013D01*
X23215Y172243D01*
X23267Y172512D01*
X23163Y172780D01*
X22957Y173010D01*
X22647Y173163D01*
X22233Y173240D01*
X21820Y173163D01*
X21510Y173010D01*
X21303Y172780D01*
X21200Y172512D01*
X21252Y172243D01*
X21407Y172013D01*
X21613Y171860D01*
G01X24300Y169450D02*
X21200D01*
G01X23267Y169987D02*
Y168913D01*
G01X22595Y166925D02*
Y165698D01*
X22957Y165813D01*
X23163Y166005D01*
X23267Y166273D01*
X23215Y166542D01*
X23060Y166772D01*
X22698Y166925D01*
X22388Y167002D01*
X22078D01*
X21768Y166925D01*
X21458Y166733D01*
X21252Y166503D01*
X21200Y166235D01*
X21303Y165967D01*
X21613Y165698D01*
G01X21200Y163787D02*
X23267D01*
G01X22853D02*
X23060Y163595D01*
X23215Y163403D01*
X23267Y163135D01*
X23215Y162943D01*
X23060Y162713D01*
G01X21200Y157050D02*
X21252Y157357D01*
X21458Y157625D01*
X21768Y157855D01*
X22130Y158008D01*
X22543Y158085D01*
X22957D01*
X23370Y158008D01*
X23732Y157855D01*
X24042Y157625D01*
X24248Y157357D01*
X24300Y157050D01*
X24248Y156743D01*
X24042Y156475D01*
X23732Y156245D01*
X23370Y156092D01*
X22957Y156015D01*
X22543D01*
X22130Y156092D01*
X21768Y156245D01*
X21458Y156475D01*
X21252Y156743D01*
X21200Y157050D01*
G01X22027Y156743D02*
X21200Y156283D01*
G01X23267Y154602D02*
X21820D01*
X21458Y154448D01*
X21252Y154218D01*
X21200Y153950D01*
X21252Y153682D01*
X21458Y153452D01*
X21820Y153298D01*
G01X21200D02*
X23267D01*
G01X21200Y150160D02*
X23267D01*
G01X22905D02*
X23112Y150313D01*
X23215Y150543D01*
X23267Y150812D01*
X23163Y151080D01*
X22957Y151310D01*
X22647Y151463D01*
X22233Y151540D01*
X21820Y151463D01*
X21510Y151310D01*
X21303Y151080D01*
X21200Y150812D01*
X21252Y150543D01*
X21407Y150313D01*
X21613Y150160D01*
G01X21200Y147750D02*
X24300D01*
G01X23267Y144650D02*
X21200D01*
G01X24093D02*
X24145Y144727D01*
X24248D01*
X24300Y144650D01*
X24248Y144573D01*
X24145D01*
X24093Y144650D01*
G01X24300Y141550D02*
X21200D01*
G01X23267Y142087D02*
Y141013D01*
G01X20270Y139255D02*
X20167Y139025D01*
X20270Y138718D01*
X20477Y138527D01*
X20735Y138373D01*
X21562Y138143D01*
X23267Y137645D01*
G01Y138872D02*
X21562Y138143D01*
G01X35100Y138700D02*
Y226700D01*
X73100D01*
Y138700D01*
X35100D01*
G01X35070Y228767D02*
X35577Y228350D01*
X36147Y228100D01*
X36653D01*
X37160Y228350D01*
X37540Y228767D01*
X37730Y229350D01*
X37603Y229933D01*
X37287Y230433D01*
X36717Y230767D01*
X35957Y230933D01*
X35513Y231267D01*
X35323Y231850D01*
X35450Y232433D01*
X35767Y232850D01*
X36210Y233100D01*
X36653D01*
X37097Y232933D01*
X37477Y232517D01*
G01X39600Y233100D02*
X40487Y228100D01*
X41500Y233100D01*
X42513Y228100D01*
X43400Y233100D01*
G01X46600Y228100D02*
Y233100D01*
X45840Y232100D01*
G01Y228100D02*
X47360D01*
G01X75133Y33000D02*
X75450Y32500D01*
X75830Y32167D01*
X76273Y32000D01*
X76780Y32167D01*
X77160Y32500D01*
X77540Y33000D01*
X77667Y33667D01*
Y37000D01*
G01X81373Y32000D02*
X81500Y33083D01*
X81690Y34000D01*
X81943Y34833D01*
X82260Y35750D01*
X82767Y37000D01*
X80233D01*
G01X72900Y30267D02*
X72400Y29950D01*
X72067Y29570D01*
X71900Y29127D01*
X72067Y28620D01*
X72400Y28240D01*
X72900Y27860D01*
X73567Y27733D01*
X76900D01*
G01X71900Y23140D02*
X76900D01*
X73317Y25483D01*
Y22317D01*
G01X76100Y117900D02*
X172100D01*
Y247500D01*
X76100D01*
Y117900D01*
G01X67307Y247600D02*
Y244017D01*
X67560Y243267D01*
X68067Y242767D01*
X68700Y242600D01*
X69333Y242767D01*
X69840Y243267D01*
X70093Y244017D01*
Y247600D01*
G01X74560Y242600D02*
Y247600D01*
X72217Y244017D01*
X75383D01*
G01X91275Y31862D02*
X91467Y31655D01*
X91735Y31500D01*
X91965D01*
X92195Y31603D01*
X92348Y31758D01*
X92425Y31965D01*
X92387Y32275D01*
X92233Y32430D01*
X91543Y32740D01*
X91390Y33102D01*
X91467Y33360D01*
X91620Y33515D01*
X91850Y33567D01*
X92080Y33515D01*
X92310Y33360D01*
G01X94375Y32895D02*
X95602D01*
X95487Y33257D01*
X95295Y33463D01*
X95027Y33567D01*
X94758Y33515D01*
X94528Y33360D01*
X94375Y32998D01*
X94298Y32688D01*
Y32378D01*
X94375Y32068D01*
X94567Y31758D01*
X94797Y31552D01*
X95065Y31500D01*
X95333Y31603D01*
X95602Y31913D01*
G01X97398Y31500D02*
Y33567D01*
G01Y33050D02*
X97552Y33308D01*
X97782Y33515D01*
X98088Y33567D01*
X98357Y33515D01*
X98587Y33308D01*
X98702Y32947D01*
Y31500D01*
G01X100575Y31862D02*
X100767Y31655D01*
X101035Y31500D01*
X101265D01*
X101495Y31603D01*
X101648Y31758D01*
X101725Y31965D01*
X101687Y32275D01*
X101533Y32430D01*
X100843Y32740D01*
X100690Y33102D01*
X100767Y33360D01*
X100920Y33515D01*
X101150Y33567D01*
X101380Y33515D01*
X101610Y33360D01*
G01X104250Y31500D02*
X104020Y31552D01*
X103790Y31758D01*
X103637Y32120D01*
X103560Y32533D01*
X103637Y32947D01*
X103790Y33308D01*
X104020Y33515D01*
X104250Y33567D01*
X104480Y33515D01*
X104710Y33308D01*
X104863Y32947D01*
X104902Y32533D01*
X104863Y32120D01*
X104710Y31758D01*
X104480Y31552D01*
X104250Y31500D01*
G01X106813D02*
Y33567D01*
G01Y33153D02*
X107005Y33360D01*
X107197Y33515D01*
X107465Y33567D01*
X107657Y33515D01*
X107887Y33360D01*
G01X101707Y56500D02*
Y52917D01*
X101960Y52167D01*
X102466Y51667D01*
X103099Y51500D01*
X103733Y51667D01*
X104239Y52167D01*
X104492Y52917D01*
Y56500D01*
G01X106994Y55667D02*
X107374Y56167D01*
X107818Y56417D01*
X108324Y56500D01*
X108957Y56333D01*
X109401Y55917D01*
X109527Y55417D01*
X109464Y54917D01*
X109211Y54500D01*
X107944Y53667D01*
X107374Y53083D01*
X106994Y52250D01*
X106868Y51500D01*
X109527D01*
G01X101265Y38251D02*
X107565D01*
Y49669D01*
X101265D01*
Y38251D01*
G01X109003Y34867D02*
X110523D01*
G01X109700Y35950D02*
Y33783D01*
G01X88977Y34767D02*
X90623D01*
G01X87393Y54383D02*
X87013Y54633D01*
X86570Y54800D01*
X86063D01*
X85493Y54550D01*
X85050Y54133D01*
X84733Y53633D01*
X84480Y52800D01*
X84417Y52050D01*
X84543Y51300D01*
X84733Y50800D01*
X85113Y50300D01*
X85557Y49967D01*
X86000Y49800D01*
X86443D01*
X86887Y49967D01*
X87267Y50217D01*
X87583Y50550D01*
G01X89897Y51883D02*
X90340Y52467D01*
X90720Y52800D01*
X91227Y52967D01*
X91670Y52800D01*
X91987Y52467D01*
X92240Y51967D01*
X92303Y51383D01*
X92240Y50883D01*
X91987Y50383D01*
X91607Y49967D01*
X91163Y49800D01*
X90657Y49967D01*
X90213Y50467D01*
X89960Y51217D01*
X89897Y52050D01*
X90023Y53133D01*
X90213Y53717D01*
X90530Y54300D01*
X90973Y54717D01*
X91417Y54800D01*
X91860Y54633D01*
X92177Y54217D01*
G01X107833Y73000D02*
Y78000D01*
X109417D01*
X109923Y77750D01*
X110240Y77417D01*
X110367Y76750D01*
X110240Y76083D01*
X109860Y75667D01*
X109417Y75417D01*
X107833D01*
G01X109417D02*
X110367Y73000D01*
G01X114960D02*
Y78000D01*
X112617Y74417D01*
X115783D01*
G01X107833Y60900D02*
Y65900D01*
X109417D01*
X109923Y65650D01*
X110240Y65317D01*
X110367Y64650D01*
X110240Y63983D01*
X109860Y63567D01*
X109417Y63317D01*
X107833D01*
G01X109417D02*
X110367Y60900D01*
G01X112807Y61650D02*
X113187Y61233D01*
X113630Y60983D01*
X114200Y60900D01*
X114770Y61067D01*
X115213Y61400D01*
X115530Y61983D01*
X115593Y62650D01*
X115467Y63317D01*
X115150Y63733D01*
X114707Y64067D01*
X114263Y64150D01*
X113820Y64067D01*
X113250Y63733D01*
X113440Y65900D01*
X115150D01*
G01X95734Y58783D02*
X102820D01*
Y81617D01*
X95734D01*
Y58783D01*
G01X86533Y88700D02*
Y83700D01*
X89066D01*
G01X91694Y87867D02*
X92074Y88367D01*
X92518Y88617D01*
X93024Y88700D01*
X93657Y88533D01*
X94101Y88117D01*
X94227Y87617D01*
X94164Y87117D01*
X93911Y86700D01*
X92644Y85867D01*
X92074Y85283D01*
X91694Y84450D01*
X91568Y83700D01*
X94227D01*
G01X127633Y32700D02*
X127950Y32200D01*
X128330Y31867D01*
X128773Y31700D01*
X129280Y31867D01*
X129660Y32200D01*
X130040Y32700D01*
X130167Y33367D01*
Y36700D01*
G01X134000Y31700D02*
Y36700D01*
X133240Y35700D01*
G01Y31700D02*
X134760D01*
G01X136877Y31867D02*
X138523D01*
G01X123293Y56983D02*
X122913Y57233D01*
X122470Y57400D01*
X121963D01*
X121393Y57150D01*
X120950Y56733D01*
X120633Y56233D01*
X120380Y55400D01*
X120317Y54650D01*
X120443Y53900D01*
X120633Y53400D01*
X121013Y52900D01*
X121457Y52567D01*
X121900Y52400D01*
X122343D01*
X122787Y52567D01*
X123167Y52817D01*
X123483Y53150D01*
G01X127760Y52400D02*
Y57400D01*
X125417Y53817D01*
X128583D01*
G01X169767Y1728D02*
Y2648D01*
G01X169095Y2150D02*
X170438D01*
G01X169147Y5557D02*
X168992Y5710D01*
X168733Y5825D01*
X168372Y5902D01*
X168062Y5825D01*
X167855Y5672D01*
X167700Y5403D01*
Y4368D01*
X170800D01*
Y5633D01*
X170593Y5902D01*
X170283Y6055D01*
X169922Y6132D01*
X169560Y6055D01*
X169250Y5825D01*
X169147Y5557D01*
Y4368D01*
G01X170800Y9040D02*
X168733D01*
G01X169095D02*
X168888Y8887D01*
X168785Y8657D01*
X168733Y8388D01*
X168837Y8120D01*
X169043Y7890D01*
X169353Y7737D01*
X169767Y7660D01*
X170180Y7737D01*
X170490Y7890D01*
X170697Y8120D01*
X170800Y8388D01*
X170748Y8657D01*
X170593Y8887D01*
X170387Y9040D01*
G01X167700Y11450D02*
X170800D01*
G01X168733Y10913D02*
Y11987D01*
G01X170903Y14550D02*
X170852Y14473D01*
X170748D01*
X170697Y14550D01*
X170748Y14627D01*
X170852D01*
X170903Y14550D01*
G01X170438Y20098D02*
X170697Y20367D01*
X170800Y20673D01*
X170697Y20980D01*
X170387Y21248D01*
X169922Y21440D01*
X169457Y21517D01*
X168888D01*
X168423Y21440D01*
X168010Y21248D01*
X167803Y21018D01*
X167700Y20750D01*
X167803Y20443D01*
X168010Y20213D01*
X168320Y20060D01*
X168733Y19983D01*
X169095Y20060D01*
X169457Y20252D01*
X169663Y20482D01*
X169715Y20750D01*
X169612Y21057D01*
X169353Y21287D01*
X168888Y21517D01*
G01X167700Y22892D02*
X170800Y23850D01*
X167700Y24808D01*
G01X152467Y32597D02*
Y31077D01*
G01X153550Y31900D02*
X151383D01*
G01X155400Y44200D02*
Y31800D01*
X167800D01*
Y44200D01*
X155400D01*
G01X144107Y83800D02*
Y80217D01*
X144360Y79467D01*
X144866Y78967D01*
X145499Y78800D01*
X146133Y78967D01*
X146639Y79467D01*
X146892Y80217D01*
Y83800D01*
G01X150597Y78800D02*
Y83800D01*
X149838Y82800D01*
G01Y78800D02*
X151357D01*
G01X147165Y65551D02*
X153465D01*
Y76969D01*
X147165D01*
Y65551D01*
G01X144893Y59583D02*
X144513Y59833D01*
X144070Y60000D01*
X143563D01*
X142993Y59750D01*
X142550Y59333D01*
X142233Y58833D01*
X141980Y58000D01*
X141917Y57250D01*
X142043Y56500D01*
X142233Y56000D01*
X142613Y55500D01*
X143057Y55167D01*
X143500Y55000D01*
X143943D01*
X144387Y55167D01*
X144767Y55417D01*
X145083Y55750D01*
G01X147397Y59167D02*
X147777Y59667D01*
X148220Y59917D01*
X148727Y60000D01*
X149360Y59833D01*
X149803Y59417D01*
X149930Y58917D01*
X149867Y58417D01*
X149613Y58000D01*
X148347Y57167D01*
X147777Y56583D01*
X147397Y55750D01*
X147270Y55000D01*
X149930D01*
G01X143234Y86283D02*
X150320D01*
Y109117D01*
X143234D01*
Y86283D01*
G01X143633Y116700D02*
Y111700D01*
X146166D01*
G01X149997D02*
Y116700D01*
X149238Y115700D01*
G01Y111700D02*
X150757D01*
G01X159600Y245500D02*
Y233100D01*
X172000D01*
Y245500D01*
X159600D01*
G54D11*
G01X79100Y-2300D02*
Y30200D01*
X119100D01*
Y-2300D01*
X79100D01*
G01X114100D02*
Y5200D01*
X104100D01*
Y-2300D01*
G01X84100D02*
Y5200D01*
X94100D01*
Y-2300D01*
G01X92500Y34500D02*
Y49000D01*
X84500D01*
Y34500D01*
X92500D01*
G01X131600Y-2300D02*
Y5200D01*
X141600D01*
Y-2300D01*
G01X126600D02*
Y30200D01*
X166600D01*
Y-2300D01*
X126600D01*
G01X120100Y51200D02*
Y36700D01*
X128100D01*
Y51200D01*
X120100D01*
G01X118100Y71200D02*
X132600D01*
Y79200D01*
X118100D01*
Y71200D01*
G01X132600Y66700D02*
X118100D01*
Y58700D01*
X132600D01*
Y66700D01*
G01X161600Y-2300D02*
Y5200D01*
X151600D01*
Y-2300D01*
G01X141500Y46000D02*
X156000D01*
Y54000D01*
X141500D01*
Y46000D01*
M02*
