G04 ================== begin FILE IDENTIFICATION RECORD ==================*
G04 Layout Name:  E:/cegep/cours/1Hiver_2014/Projet/pcb/board6DFfils7Fini.brd*
G04 Film Name:    TOP*
G04 File Format:  Gerber RS274X*
G04 File Origin:  Cadence Allegro 16.6-S021*
G04 Origin Date:  Wed Apr 09 16:31:28 2014*
G04 *
G04 Layer:  ETCH/TOP*
G04 Layer:  PIN/TOP*
G04 Layer:  VIA CLASS/TOP*
G04 *
G04 Offset:    (0.00 0.00)*
G04 Mirror:    No*
G04 Mode:      Positive*
G04 Rotation:  0*
G04 FullContactRelief:  No*
G04 UndefLineWidth:     10.00*
G04 ================== end FILE IDENTIFICATION RECORD ====================*
%FSLAX25Y25*MOIN*%
%IR0*IPPOS*OFA0.00000B0.00000*MIA0B0*SFA1.00000B1.00000*%
%ADD11C,.06*%
%ADD16C,.07*%
%ADD12C,.027*%
%ADD10C,.09*%
%ADD14C,.055*%
%ADD15R,.06X.06*%
%ADD17R,.07X.07*%
%ADD20R,.08268X.22835*%
%ADD19R,.063X.05*%
%ADD21R,.05X.063*%
%ADD13C,.135*%
%ADD18R,.04134X.02362*%
%ADD22C,.02*%
%ADD23C,.025*%
%ADD25R,.06004X.07304*%
%ADD24R,.07304X.06004*%
G75*
%LPD*%
G75*
G36*
G01X154952Y54352D02*
Y55585D01*
X158082Y58715D01*
Y65138D01*
X158898D01*
Y69902D01*
X156210D01*
X156187Y69908D01*
G03X155073I-557J-2388D01*
G01X155050Y69902D01*
X152362D01*
Y65138D01*
X153178D01*
Y60745D01*
X151368Y58935D01*
X151344Y58922D01*
G03X150378Y57956I1256J-2222D01*
G01X150365Y57932D01*
X150048Y57615D01*
Y56747D01*
G03Y56653I2552J-47D01*
G01Y54352D01*
X148798D01*
Y45604D01*
G02X148899Y44966I-182J-356D01*
G01X148835Y44902D01*
X147740Y43806D01*
Y42652D01*
X128452D01*
Y43902D01*
X119748D01*
Y42652D01*
X117010D01*
X116983Y42659D01*
G03X115617I-683J-2459D01*
G01X115590Y42652D01*
X114582D01*
X114562Y42672D01*
X109730D01*
G03X109173Y42608I0J-2452D01*
G01X109150Y42602D01*
X106462D01*
Y37838D01*
X109150D01*
X109173Y37832D01*
G03X109730Y37768I557J2388D01*
G01X112532D01*
X112552Y37748D01*
X115590D01*
X115617Y37741D01*
G03X116983I683J2459D01*
G01X117010Y37748D01*
X119748D01*
Y36498D01*
X128452D01*
Y37748D01*
X148748D01*
Y17085D01*
X152028Y13805D01*
X152005Y13698D01*
G03X151924Y13196I4595J-999D01*
G03X151902Y12892I4676J-491D01*
G01X151894Y12700D01*
X140602D01*
Y16702D01*
X132598D01*
Y12700D01*
X113806D01*
X113798Y12892D01*
G03X104402I-4698J-192D01*
G01X104394Y12700D01*
X93102D01*
Y16702D01*
X85098D01*
Y12700D01*
X76500D01*
X74002Y15198D01*
Y49540D01*
X74009Y49567D01*
Y49569D01*
G03X74097Y50415I-2459J683D01*
G03X69511Y51784I-2547J-165D01*
G02X68802Y52038I-309J254D01*
G01Y65588D01*
X70349Y67136D01*
X71343Y68130D01*
X71393Y68144D01*
G03X68244Y71293I-693J2456D01*
G01X68230Y71243D01*
X66731Y69744D01*
X64398Y67412D01*
Y46312D01*
X63977Y45891D01*
X63707Y45620D01*
X63657Y45606D01*
G03X66806Y42457I693J-2456D01*
G01X66820Y42507D01*
X67444Y43131D01*
X68416Y44102D01*
G02X69098Y43819I282J-283D01*
G01Y15834D01*
G02X68416Y15551I-400J0D01*
G01X67315Y16652D01*
X18100D01*
Y20152D01*
X18868D01*
X19426Y20710D01*
X24348Y25633D01*
Y26981D01*
X29052Y31685D01*
Y33498D01*
X30802D01*
Y41902D01*
X22398D01*
Y40152D01*
X20964D01*
X18783Y42333D01*
G03X18500Y42450I-283J-283D01*
G02X18100Y42850I0J400D01*
G01Y72748D01*
X53690D01*
X53717Y72741D01*
G03Y77659I683J2459D01*
G01X53690Y77652D01*
X18100D01*
Y91700D01*
X49487D01*
X50544Y90643D01*
X52188Y88998D01*
X103888D01*
X105131Y87755D01*
X105930Y86957D01*
X105944Y86907D01*
G03X109093Y90056I2456J693D01*
G01X109043Y90070D01*
X108086Y91028D01*
G02X108379Y91700I293J272D01*
G01X113202D01*
Y87500D01*
G02X113199Y87405I-2002J16D01*
G01X113189Y87186D01*
X108822Y82819D01*
X101618D01*
Y61047D01*
X101461Y60890D01*
X98794Y58222D01*
X96936D01*
Y82819D01*
X86264D01*
Y72652D01*
X81665D01*
X77728Y68715D01*
Y32546D01*
X78208Y32066D01*
X86387Y23888D01*
X91954D01*
X101020Y32953D01*
X101552Y33485D01*
Y37838D01*
X102368D01*
Y42602D01*
X101668D01*
Y45318D01*
X102368D01*
Y50082D01*
X95832D01*
Y45318D01*
X96532D01*
Y42602D01*
X95832D01*
Y37838D01*
X96648D01*
Y35515D01*
X96275Y35142D01*
X89924Y28790D01*
X88417D01*
X82953Y34255D01*
X82632Y34576D01*
Y66685D01*
X83695Y67748D01*
X86264D01*
Y57581D01*
X92699D01*
G02X92981Y56898I-1J-400D01*
G01X88325Y52242D01*
X87835Y52732D01*
X87822Y52756D01*
G03X83285Y52574I-2222J-1256D01*
G03X84148Y49401I2315J-1074D01*
G01Y41798D01*
X92852D01*
Y49202D01*
X92702D01*
G02X92560Y49543I0J200D01*
G01X92769Y49752D01*
X96336Y53320D01*
X100824D01*
X104850Y57345D01*
X105086Y57581D01*
X112290D01*
Y79353D01*
X112581Y79644D01*
X117544Y84608D01*
X121126D01*
X125256Y80477D01*
X125498Y80235D01*
G02X125216Y79552I-283J-283D01*
G01X117898D01*
Y70848D01*
X119148D01*
Y67052D01*
X117898D01*
Y61815D01*
X117492Y61409D01*
X110584Y54500D01*
Y51134D01*
X109653Y50204D01*
X109597Y50148D01*
G03X109173Y50088I130J-2448D01*
G01X109150Y50082D01*
X106462D01*
Y45318D01*
X109150D01*
X109173Y45312D01*
G03X109730Y45248I557J2388D01*
G01X111631D01*
X111635Y45252D01*
X111700Y45318D01*
X112998D01*
Y46616D01*
X115486Y49104D01*
Y52470D01*
X121039Y58022D01*
X121365Y58348D01*
X125302D01*
Y67052D01*
X124052D01*
Y70848D01*
X132802D01*
Y79248D01*
X133190D01*
X133217Y79241D01*
G03X134094Y79155I684J2459D01*
G02X134407Y78474I30J-399D01*
G01X134368Y78435D01*
X133698Y77764D01*
Y70803D01*
X139114Y65386D01*
X139432Y65068D01*
X145000D01*
G03X145557Y65132I0J2452D01*
G01X145580Y65138D01*
X148268D01*
Y69902D01*
X147568D01*
Y72618D01*
X148268D01*
Y77382D01*
X141816D01*
X141783Y77395D01*
G03X141499Y77481I-880J-2396D01*
G03X141278Y77524I-597J-2481D01*
G02X141067Y78200I72J393D01*
G01X141552Y78685D01*
Y85081D01*
X144436D01*
Y91700D01*
X149118D01*
Y85081D01*
X159790D01*
Y88778D01*
G02X160472Y89061I400J0D01*
G01X168900Y80633D01*
Y42706D01*
G02X168170Y42480I-400J0D01*
G03X166725Y44081I-6571J-4478D01*
G03X154076Y40574I-5125J-6081D01*
G02X153421Y40437I-372J146D01*
G01X153378Y40480D01*
X152642Y41215D01*
Y41776D01*
X154824Y43957D01*
X154952Y44085D01*
Y45648D01*
X156202D01*
Y54352D01*
X154952D01*
G37*
%LPC*%
G75*
G36*
G01X155985Y77452D02*
X158015Y79482D01*
G02X161505Y76028I2235J-1232D01*
G01X161482Y76015D01*
X158898Y73432D01*
Y72618D01*
X158084D01*
X158015Y72548D01*
X155630D01*
G02X155074Y72612I1J2452D01*
G01X155052Y72618D01*
X152362D01*
Y77382D01*
X155052D01*
X155074Y77388D01*
G02X155630Y77452I557J-2388D01*
G01X155985D01*
G37*
G36*
G01X38398Y26288D02*
X34398Y30288D01*
Y34121D01*
G02X38802I2202J3579D01*
G01Y32112D01*
X41512Y29402D01*
X44319D01*
G03X44602Y30084I0J400D01*
G01X44398Y30288D01*
Y34121D01*
G02X48802I2202J3579D01*
G01Y32112D01*
X51835Y29079D01*
X51937Y29096D01*
G02X48704Y25863I663J-3896D01*
G01X48721Y25965D01*
X47484Y27202D01*
G03X46802Y26919I-282J-283D01*
G01Y20998D01*
X38398D01*
Y26288D01*
G37*
G54D25*
X129100Y62700D03*
X145000Y50000D03*
G54D24*
X88500Y38000D03*
X124100Y47700D03*
%LPD*%
G75*
G54D10*
X22600Y5200D03*
X62600D03*
G54D20*
X106954Y70200D03*
X91600D03*
X139100Y97700D03*
X154454D03*
G54D11*
X9100Y15200D03*
Y5200D03*
Y25200D03*
X46600Y37700D03*
X36600D03*
X46600Y107700D03*
X36600D03*
X26600D03*
X39100Y147700D03*
Y157700D03*
Y167700D03*
Y177700D03*
Y187700D03*
Y197700D03*
Y207700D03*
X66600Y107700D03*
X56600D03*
X69100Y167700D03*
Y157700D03*
Y147700D03*
Y197700D03*
Y187700D03*
Y177700D03*
Y217700D03*
Y207700D03*
X76600Y237700D03*
X106600D03*
X96600D03*
X86600D03*
X116600D03*
G54D21*
X129100Y75200D03*
X121600D03*
Y62700D03*
X129100D03*
X152500Y50000D03*
X145000D03*
G54D12*
X14300Y55000D03*
X26200Y61200D03*
X28300Y81700D03*
X21700Y82700D03*
X71550Y50250D03*
X64350Y43150D03*
X54400Y75200D03*
X54500Y55500D03*
X70700Y70600D03*
X75700Y110900D03*
X85600Y51500D03*
X104400Y36400D03*
X89200Y31900D03*
X104400Y44000D03*
Y47700D03*
X104300Y40200D03*
X104800Y98100D03*
X108400Y87600D03*
X101000Y99900D03*
X94700Y115100D03*
X97619Y117519D03*
X100000Y120700D03*
X104200Y124200D03*
X107200Y127400D03*
X111200Y155100D03*
X83600Y225000D03*
X116300Y40200D03*
X138600Y50000D03*
X140900Y75000D03*
X124100Y53800D03*
X126400Y110400D03*
X114100Y94500D03*
X133900Y81700D03*
X122800Y113400D03*
X139100Y130500D03*
X134300Y202500D03*
X160250Y78250D03*
X152600Y56700D03*
X154500Y71269D03*
X149900Y75400D03*
X150100Y71500D03*
X150200Y68500D03*
X163700Y105400D03*
X146900Y137000D03*
X143300Y133000D03*
X150900Y140900D03*
G54D22*
G01X46600Y37700D02*
Y31200D01*
X52600Y25200D01*
G01X36600Y37700D02*
Y31200D01*
X42600Y25200D01*
G01X108400Y87600D02*
X104800Y91200D01*
X53100D01*
X36600Y107700D01*
G01X114100Y94500D02*
X59800D01*
X46600Y107700D01*
G01X39100Y147700D02*
Y137145D01*
X48375Y127870D01*
Y127869D01*
X57744Y118500D01*
X96638D01*
X97619Y117519D01*
G01X39100Y157700D02*
X44300Y152500D01*
Y144427D01*
X44299Y144426D01*
Y136472D01*
X51575Y129196D01*
Y129195D01*
X59070Y121700D01*
X99000D01*
X100000Y120700D01*
G01X39100Y167700D02*
X47500Y159300D01*
Y143101D01*
X47499Y143100D01*
Y137798D01*
X54775Y130522D01*
Y130521D01*
X60396Y124900D01*
X104200D01*
Y124200D01*
G01X107200Y127400D02*
X106600D01*
X105900Y128100D01*
X61722D01*
X57975Y131847D01*
Y131848D01*
X50699Y139124D01*
Y141774D01*
X50700Y141775D01*
Y175559D01*
X48559Y177700D01*
X39100D01*
G01Y187700D02*
X51500D01*
X53900Y185300D01*
Y140449D01*
X61175Y133174D01*
Y133173D01*
X63048Y131300D01*
X139100D01*
Y130500D01*
G01X143300Y133000D02*
X141800Y134500D01*
X64375D01*
X57100Y141775D01*
Y195700D01*
X55100Y197700D01*
X39100D01*
G01Y207700D02*
X58300D01*
X60300Y205700D01*
Y143101D01*
X65651Y137750D01*
X67169D01*
X67219Y137700D01*
X146900D01*
Y137000D01*
G01X150900Y140900D02*
X68545D01*
X63900Y145545D01*
Y215700D01*
X61900Y217700D01*
X39100D01*
G01X64350Y43150D02*
X66600Y45400D01*
Y66500D01*
X70700Y70600D01*
G01X75700Y110900D02*
X72500Y107700D01*
X66600D01*
G01X94700Y115100D02*
X64000D01*
X56600Y107700D01*
G01X80800Y155100D02*
X111200D01*
G01X134300Y202500D02*
X80800D01*
G01X104800Y98100D02*
X117700D01*
X126400Y106800D01*
Y110400D01*
G01X101000Y99900D02*
X104516Y103416D01*
X118416D01*
X122800Y107800D01*
Y113400D01*
G01X145000Y75000D02*
X140900D01*
G54D13*
X12300Y126500D03*
X12400Y239400D03*
X161600Y38000D03*
X165800Y239300D03*
G54D23*
G01X9100Y15200D02*
X26600Y32700D01*
Y37700D01*
G01X155300Y97700D02*
X171652Y81348D01*
Y5952D01*
X166798Y1098D01*
X79402D01*
X66300Y14200D01*
X18100D01*
X9100Y5200D01*
G01X14300Y55000D02*
Y42300D01*
X18900Y37700D01*
X26600D01*
G01X54400Y75200D02*
X11700D01*
X9200Y72700D01*
Y25300D01*
X9100Y25200D01*
G01X71550Y50250D02*
Y14183D01*
X80935Y4798D01*
X148698D01*
X156600Y12700D01*
G01X91600Y70200D02*
X82680D01*
X80180Y67700D01*
Y33561D01*
X87402Y26339D01*
X90939D01*
X99100Y34500D01*
Y40220D01*
G01X69100Y147700D02*
X73850D01*
X74450Y147100D01*
X80800D01*
G01Y218300D02*
X90800Y208300D01*
X152400D01*
X154900Y205800D01*
Y120500D01*
X152400Y118000D01*
X133100D01*
X130600Y115500D01*
Y101130D01*
X116529Y87059D01*
G01X83600Y225000D02*
X76400D01*
X69100Y217700D01*
G01X109730Y47700D02*
X110616D01*
X113035Y50119D01*
Y53485D01*
X121600Y62050D01*
Y62700D01*
G01X116300Y40200D02*
X113567D01*
X113547Y40220D01*
X109730D01*
G01X88213Y48887D02*
X88437D01*
X95321Y55771D01*
X99809D01*
X106954Y62916D01*
Y70200D01*
G01X88500Y45500D02*
Y48600D01*
X88213Y48887D01*
G01D02*
X85600Y51500D01*
G01X86600Y38000D02*
X88500D01*
G01D02*
X93900D01*
G01X96331Y43960D02*
X99100D01*
G01D02*
X101869D01*
G01X116529Y87059D02*
X106954Y77484D01*
Y70200D01*
G01X86600Y237700D02*
Y230950D01*
X83600Y227950D01*
Y225000D01*
G01X124100Y40200D02*
X116300D01*
G01X150191D02*
X124100D01*
G01X138600Y50000D02*
X145000D01*
G01X124100Y53800D02*
Y47700D01*
G01X120248D02*
X124100D01*
G01D02*
X127952D01*
G01X121600Y75200D02*
Y62700D01*
G01X145000Y67520D02*
X140447D01*
X136149Y71818D01*
Y76749D01*
X139100Y79700D01*
Y97700D01*
G01X129100Y75200D02*
Y79200D01*
G01D02*
Y80100D01*
X122141Y87059D01*
X116529D01*
G01X129100Y79200D02*
X131600Y81700D01*
X133900D01*
G01X129100Y58848D02*
Y62700D01*
G01D02*
Y66552D01*
G01Y62700D02*
X132302D01*
G01X156600Y12700D02*
X151200Y18100D01*
Y39191D01*
X150191Y40200D01*
G01X152500Y50000D02*
Y56600D01*
X152600Y56700D01*
G01X150191Y40200D02*
Y42791D01*
X152500Y45100D01*
Y50000D01*
G01X145000Y46148D02*
Y50000D01*
G01D02*
Y53852D01*
G01X160250Y78250D02*
X157000Y75000D01*
X155630D01*
G01Y67520D02*
Y59730D01*
X152600Y56700D01*
G01X145000Y71260D02*
X148787D01*
G01D02*
X149027Y71500D01*
X150100D01*
G01X163700Y105400D02*
X156000Y97700D01*
X155300D01*
G01D02*
X154454D01*
G54D14*
X52600Y25200D03*
X80800Y147100D03*
Y155100D03*
Y162900D03*
Y170900D03*
Y178700D03*
Y186700D03*
Y194500D03*
Y202500D03*
Y210300D03*
Y218300D03*
X167400Y170900D03*
Y162900D03*
Y155100D03*
Y147100D03*
Y202500D03*
Y194500D03*
Y186700D03*
Y178700D03*
Y218300D03*
Y210300D03*
G54D15*
X42600Y25200D03*
X26600Y37700D03*
X39100Y217700D03*
X66600Y237700D03*
G54D16*
X109100Y12700D03*
X156600D03*
G54D17*
X89100D03*
X136600D03*
G54D18*
X109730Y47700D03*
Y40220D03*
X99100D03*
Y43960D03*
Y47700D03*
X155630Y75000D03*
Y67520D03*
X145000D03*
Y71260D03*
Y75000D03*
G54D19*
X88500Y45500D03*
Y38000D03*
X124100Y40200D03*
Y47700D03*
M02*
